<svg version="1.1" id="Layer_1" xmlns="http://www.w3.org/2000/svg" xmlns:xlink="http://www.w3.org/1999/xlink" x="0px" y="0px"
	 width="100%" viewBox="0 0 650 296" enable-background="new 0 0 650 296" xml:space="preserve">
<path fill="#FFFEFE" opacity="1.000000" stroke="none" 
	d="
M445.000000,297.000000 
	C296.666656,297.000000 148.833328,297.000000 1.000000,297.000000 
	C1.000000,198.333328 1.000000,99.666664 1.000000,1.000000 
	C217.666672,1.000000 434.333344,1.000000 651.000000,1.000000 
	C651.000000,99.666664 651.000000,198.333328 651.000000,297.000000 
	C582.500000,297.000000 514.000000,297.000000 445.000000,297.000000 
M96.887115,103.930641 
	C95.894600,108.198196 94.557579,112.421631 94.003708,116.745377 
	C93.416687,121.327881 93.705048,125.965179 97.908508,129.963165 
	C101.068497,133.516861 105.083466,136.596603 104.879402,142.067001 
	C104.184715,160.690567 103.552238,179.317169 102.698296,197.933548 
	C102.477913,202.737778 101.271324,207.493546 100.992401,212.299149 
	C100.687180,217.557709 104.418846,220.621429 109.651123,219.918961 
	C114.952591,219.207184 117.155663,215.264526 115.714867,207.931473 
	C111.581390,186.893890 110.724144,165.628494 111.205437,144.289307 
	C111.279991,140.983765 111.979706,136.741638 114.085411,134.596771 
	C123.308983,125.201706 122.315666,114.797928 118.059807,104.021805 
	C116.199181,99.310562 113.815247,94.524178 107.296303,93.008133 
	C101.398315,93.983788 99.221153,98.540443 96.887115,103.930641 
M173.011856,152.753937 
	C174.466858,152.830856 176.269821,153.501678 177.319427,152.886703 
	C183.370758,149.341095 187.198395,144.147125 188.241608,136.544327 
	C188.272400,136.030075 188.303177,135.515808 188.662689,134.252335 
	C188.597733,133.173065 188.532761,132.093796 188.678253,130.523834 
	C188.517029,130.067657 188.355804,129.611481 188.194565,129.155304 
	C187.772263,129.761520 187.349960,130.367737 186.325882,131.271729 
	C182.190323,134.290802 178.054764,137.309891 173.184555,140.335922 
	C172.801453,139.561310 172.418350,138.786697 172.565491,137.515427 
	C176.792313,126.483475 172.550598,114.172066 161.475281,106.078659 
	C157.886032,117.501472 159.793701,127.746445 166.752014,138.080246 
	C167.415436,133.969604 167.940918,130.713562 168.466415,127.457527 
	C168.897903,127.459160 169.329407,127.460800 169.760910,127.462440 
	C170.160553,130.971985 170.560211,134.481522 170.590027,138.570526 
	C170.465790,139.714798 170.341568,140.859055 169.924454,142.736588 
	C168.823746,146.780624 167.723053,150.824661 165.959412,154.832932 
	C162.723404,150.818893 159.467957,146.837891 153.092178,147.034058 
	C155.044907,149.383911 156.848480,151.125092 158.135590,153.188446 
	C161.241974,158.168304 164.106003,163.354813 158.720139,169.466675 
	C156.397110,172.102844 154.826096,175.401718 152.913452,178.399536 
	C153.159409,178.735352 153.405350,179.071167 153.651306,179.406982 
	C156.820969,177.453644 159.990646,175.500290 163.160309,173.546951 
	C163.360184,173.834396 163.560074,174.121841 163.759949,174.409302 
	C163.034714,175.962723 162.309479,177.516159 161.460648,179.334320 
	C174.148804,175.293671 181.469955,169.398895 181.486130,159.779129 
	C176.219162,161.241608 171.073624,162.670364 165.133698,164.319702 
	C166.596985,160.721558 167.760849,157.859726 169.391830,154.508209 
	C170.261459,153.287582 171.131088,152.066971 172.526215,151.081940 
	C172.742508,151.387268 172.958817,151.692596 173.011856,152.753937 
M43.109119,140.020157 
	C38.484489,136.708603 33.859863,133.397049 29.160009,130.031631 
	C27.338356,141.128189 34.977371,153.949417 42.940041,153.472992 
	C42.713352,152.368607 42.486374,151.262833 41.968494,148.739853 
	C47.834419,153.148056 49.559082,158.480377 51.128120,163.911331 
	C50.953697,164.053192 50.779278,164.195038 49.938057,164.083542 
	C45.035763,162.602005 40.133469,161.120468 34.734234,159.488754 
	C36.731705,172.131973 45.962700,175.603317 55.635918,179.743729 
	C54.350285,177.234390 53.330494,175.243927 52.310703,173.253464 
	C52.633709,172.894531 52.956715,172.535583 53.279716,172.176651 
	C56.478054,174.663971 59.676392,177.151276 62.874729,179.638580 
	C62.787136,177.609634 61.940376,175.869064 61.026077,174.164749 
	C58.678932,169.789444 54.864304,165.611862 54.284241,161.020676 
	C53.478024,154.639557 55.087936,147.953171 55.663582,141.397461 
	C55.303391,141.174576 54.943195,140.951691 54.583000,140.728821 
	C52.729935,143.887421 50.876869,147.046021 49.037159,150.181854 
	C47.008854,142.329666 44.085999,134.251892 48.524319,125.348587 
	C49.092010,129.800461 49.579536,133.623657 50.194702,138.447784 
	C57.399399,127.680923 59.455391,117.373833 55.256229,105.999962 
	C43.737446,115.122444 40.619625,125.098717 44.154030,139.878311 
	C44.014709,140.009262 43.875389,140.140213 43.109119,140.020157 
M69.780342,93.832916 
	C69.590019,103.292191 69.399689,112.751465 69.209366,122.210747 
	C68.321831,122.255867 67.434303,122.300995 66.546776,122.346115 
	C65.325233,117.674377 66.070038,112.706070 65.794182,107.897224 
	C65.504700,102.850769 65.289970,97.800026 65.042572,92.751152 
	C62.719650,100.708015 61.534122,108.744957 59.968250,116.707092 
	C58.559731,123.869133 60.250591,130.178146 64.116623,136.161224 
	C68.191811,142.468018 70.331306,149.356812 70.033867,156.946152 
	C69.734055,164.596283 69.869339,172.279922 69.201454,179.895172 
	C68.301559,190.155731 66.839523,200.367859 65.571335,210.594910 
	C64.871201,216.241028 67.439613,219.856964 72.392586,220.039780 
	C77.484924,220.227753 80.250053,217.107574 80.080559,211.315765 
	C80.046555,210.153854 79.999504,208.970306 79.757195,207.839859 
	C76.388191,192.122726 75.803665,176.198761 75.666199,160.183502 
	C75.585831,150.819916 78.060516,142.675049 82.939079,134.728271 
	C85.313889,130.859879 86.826958,125.716743 86.681526,121.216866 
	C86.447365,113.971764 84.540237,106.777298 83.258842,99.575867 
	C83.154716,98.990654 82.428200,98.516182 81.990891,97.990257 
	C80.899750,105.328934 80.971718,112.393967 80.822861,119.454338 
	C80.800293,120.524712 79.751389,121.573448 79.177231,122.632202 
	C78.451210,121.564957 77.177094,120.536247 77.098877,119.423470 
	C76.832581,115.634926 76.987968,111.816742 77.138878,107.084427 
	C77.138878,102.172523 77.138878,97.260628 77.138878,92.348724 
	C76.507126,92.352722 75.875374,92.356728 75.243622,92.360725 
	C75.243622,97.610031 75.243622,102.859337 75.154739,109.021912 
	C75.154739,113.390228 75.154739,117.758537 75.154739,122.126854 
	C74.404114,122.262619 73.653488,122.398384 72.902863,122.534142 
	C72.271797,120.851089 71.141548,119.181862 71.094513,117.482643 
	C70.869293,109.345612 70.937401,101.200470 70.928642,92.461746 
	C70.579109,92.603073 70.229568,92.744400 69.780342,93.832916 
M291.202576,133.500015 
	C291.202576,121.078842 291.202576,108.657661 291.202576,96.022026 
	C283.750610,96.022026 277.069305,96.022026 269.989441,96.022026 
	C269.989441,108.048965 269.989441,119.297783 269.989441,130.787201 
	C260.513123,130.787201 251.444443,130.787201 241.875183,130.787201 
	C241.875183,119.168365 241.875183,107.766296 241.875183,95.878372 
	C234.671585,95.878372 227.969208,95.878372 221.047150,95.878372 
	C221.047150,126.269218 221.047150,156.017426 221.047150,186.331146 
	C228.024963,186.331146 234.823776,186.331146 242.137085,186.331146 
	C242.137085,173.392944 242.137085,161.155197 242.137085,149.115417 
	C251.715607,149.115417 260.770874,149.115417 270.198364,149.115417 
	C270.198364,161.656616 270.198364,173.755600 270.198364,186.439026 
	C277.286469,186.439026 283.985596,186.439026 291.202698,186.439026 
	C291.202698,168.736099 291.202698,151.618073 291.202576,133.500015 
M500.497192,208.004074 
	C506.977112,201.290131 508.401642,192.653946 508.733002,183.998886 
	C509.267670,170.033356 508.842194,156.032837 509.249481,142.059525 
	C509.360718,138.243713 511.036682,134.481140 511.910889,130.674942 
	C512.148682,129.639450 512.384644,128.447281 512.106384,127.474297 
	C509.921936,119.834854 504.637573,117.500961 497.872314,121.812943 
	C494.621765,123.884781 492.678528,123.441025 489.611053,121.661308 
	C477.779053,114.796494 463.386658,118.218994 456.507751,129.992325 
	C447.809753,144.879028 448.191254,160.543671 455.146820,175.966034 
	C459.006927,184.525055 467.173523,188.655518 476.481628,187.284760 
	C480.648010,186.671204 484.657898,184.994812 488.723419,183.805252 
	C489.837189,195.512711 485.694366,200.223557 473.967194,199.943588 
	C470.363983,199.857590 466.705658,199.118942 463.209259,198.173584 
	C456.969971,196.486618 456.614410,196.517075 454.369568,202.765350 
	C453.920807,204.014313 453.647461,205.325470 453.270081,206.601120 
	C452.358734,209.681717 453.045013,211.847961 456.575653,212.357620 
	C463.956024,213.422958 471.323730,215.170959 478.725006,215.331757 
	C486.330566,215.496979 494.101196,214.503601 500.497192,208.004074 
M325.883209,121.473862 
	C318.709900,117.814491 311.797546,118.636292 307.111816,122.952950 
	C307.739075,130.128860 308.552216,136.503616 308.791687,142.899857 
	C309.103180,151.220322 308.564240,159.583023 309.093201,167.882797 
	C310.189972,185.092667 324.404541,192.504974 339.315887,183.874298 
	C342.027588,182.304779 344.554382,180.415833 345.916412,179.507797 
	C351.139526,182.269775 355.402771,184.969147 360.027649,186.704987 
	C361.458160,187.241913 364.607941,185.668839 365.662903,184.152237 
	C367.215729,181.919846 368.412445,178.833130 368.287201,176.179871 
	C368.091248,172.028488 365.994598,167.953491 365.881775,163.814011 
	C365.536957,151.160126 365.754364,138.490921 365.753052,125.827667 
	C365.752869,124.054710 365.753021,122.281754 365.753021,120.167831 
	C358.505585,120.167831 351.961670,120.167831 344.980194,120.167831 
	C344.980194,134.114853 344.993347,147.414017 344.972992,160.713135 
	C344.965942,165.311539 341.297913,168.833328 336.443512,168.995575 
	C331.638306,169.156189 329.893463,167.282944 329.804718,161.236267 
	C329.667786,151.907455 330.039581,142.560089 329.565308,133.252701 
	C329.372223,129.463364 327.528961,125.758087 325.883209,121.473862 
M402.487854,152.538849 
	C402.488464,150.038925 402.362885,147.529877 402.543060,145.042953 
	C402.632751,143.804810 402.974152,141.824722 403.732208,141.525833 
	C407.137115,140.183319 410.764648,138.550171 414.242310,138.694794 
	C415.520325,138.747940 416.827087,143.344116 417.694397,146.006897 
	C418.186798,147.518661 417.827759,149.311462 417.832520,150.977737 
	C417.856781,159.477280 417.768280,167.978943 417.939026,176.475464 
	C418.025909,180.796356 419.057220,185.819000 423.756500,186.390228 
	C428.763397,186.998871 434.071136,185.457504 439.182556,184.505676 
	C439.892426,184.373489 440.753204,182.196014 440.651276,181.044418 
	C440.157196,175.461945 439.043793,169.923660 438.737579,164.337524 
	C438.209503,154.704330 438.888916,144.946899 437.651794,135.424789 
	C435.978882,122.548706 425.288391,116.426331 412.974457,120.587532 
	C408.946625,121.948654 405.306458,124.457176 401.442688,126.465034 
	C395.867493,119.679367 389.884583,117.777237 382.029510,120.522697 
	C382.029510,142.262497 382.029510,164.049957 382.029510,186.841568 
	C387.499451,186.841568 392.766083,186.813354 398.032196,186.851868 
	C401.337067,186.876022 402.653137,185.552811 402.566589,182.026077 
	C402.333649,172.532059 402.487122,163.028549 402.487854,152.538849 
M589.459290,187.039474 
	C590.458557,187.010651 591.468018,186.875748 592.455383,186.970779 
	C597.608948,187.466782 599.257446,185.340500 599.024353,180.089706 
	C598.574219,169.946274 598.878052,159.768784 598.894653,149.605453 
	C598.905090,143.217056 602.932861,138.999985 609.329590,138.854385 
	C611.759399,138.799088 614.199036,139.170731 617.408203,139.404053 
	C618.773254,134.128189 620.255249,129.046722 621.288879,123.875610 
	C621.502380,122.807770 620.309998,120.615242 619.317871,120.284538 
	C611.867920,117.801422 603.758911,120.598633 598.859924,126.984314 
	C598.094543,127.982048 597.297546,128.955521 596.151306,130.398178 
	C592.628418,124.787239 588.589844,120.207748 582.029236,119.973381 
	C580.150330,119.906265 577.446899,121.651192 576.452820,123.346085 
	C575.140625,125.583488 574.397705,128.690170 574.741577,131.243851 
	C575.323914,135.567886 577.777100,139.713608 577.973328,144.001572 
	C578.467834,154.808899 578.143921,165.653732 578.145630,176.483521 
	C578.147339,186.808853 578.145996,186.808853 589.459290,187.039474 
M552.663635,139.725983 
	C555.604553,139.535263 558.561890,139.471344 561.478638,139.093933 
	C562.713928,138.934097 564.644043,138.381317 564.926025,137.553329 
	C566.756287,132.180328 568.219421,126.682297 569.849609,121.063652 
	C557.982483,117.865860 549.592896,120.496994 543.821167,131.052551 
	C540.315186,124.637314 535.984558,120.237381 529.278992,119.956757 
	C527.465271,119.880852 524.893677,121.893913 523.846375,123.649818 
	C522.585876,125.763069 521.822327,128.743515 522.195984,131.137405 
	C522.892883,135.601074 525.391968,139.861694 525.663269,144.297226 
	C526.231384,153.583832 525.843750,162.929092 525.841980,172.250275 
	C525.838928,188.388840 526.159790,188.623581 542.396545,186.869781 
	C545.427124,186.542435 546.714172,185.549744 546.655151,182.259140 
	C546.463989,171.609787 546.792786,160.948944 546.490051,150.304779 
	C546.355713,145.581299 547.845032,142.268936 552.663635,139.725983 
M149.267441,195.986862 
	C148.798645,190.352585 147.960846,184.720779 147.923325,179.083633 
	C147.736145,150.959351 147.766312,122.833679 147.692078,94.708565 
	C147.687119,92.833527 147.450912,90.959099 147.305817,88.844894 
	C145.942459,89.168510 145.231354,89.186966 144.688736,89.498672 
	C143.685471,90.074997 142.729309,90.761909 141.843170,91.509079 
	C132.876877,99.069221 128.245972,109.080406 126.365761,120.340508 
	C124.545227,131.243149 126.484818,140.721542 137.176361,147.028244 
	C139.539062,148.421951 141.144943,152.751694 141.339935,155.840546 
	C141.820801,163.458221 141.693390,171.175339 141.049561,178.788116 
	C140.167892,189.213211 138.668015,199.590347 137.267609,209.965714 
	C136.347076,216.785828 139.770370,220.935760 145.789993,219.927811 
	C150.122833,219.202301 152.325348,216.291611 151.787766,211.119904 
	C151.290237,206.333496 150.261505,201.602325 149.267441,195.986862 
z"/>
<path fill="#FC7724" opacity="1.000000" stroke="none" 
	d="
M291.202637,134.000031 
	C291.202698,151.618073 291.202698,168.736099 291.202698,186.439026 
	C283.985596,186.439026 277.286469,186.439026 270.198364,186.439026 
	C270.198364,173.755600 270.198364,161.656616 270.198364,149.115417 
	C260.770874,149.115417 251.715607,149.115417 242.137085,149.115417 
	C242.137085,161.155197 242.137085,173.392944 242.137085,186.331146 
	C234.823776,186.331146 228.024963,186.331146 221.047150,186.331146 
	C221.047150,156.017426 221.047150,126.269218 221.047150,95.878372 
	C227.969208,95.878372 234.671585,95.878372 241.875183,95.878372 
	C241.875183,107.766296 241.875183,119.168365 241.875183,130.787201 
	C251.444443,130.787201 260.513123,130.787201 269.989441,130.787201 
	C269.989441,119.297783 269.989441,108.048965 269.989441,96.022026 
	C277.069305,96.022026 283.750610,96.022026 291.202576,96.022026 
	C291.202576,108.657661 291.202576,121.078842 291.202637,134.000031 
z"/>
<path fill="#FC7B2A" opacity="1.000000" stroke="none" 
	d="
M500.241882,208.260406 
	C494.101196,214.503601 486.330566,215.496979 478.725006,215.331757 
	C471.323730,215.170959 463.956024,213.422958 456.575653,212.357620 
	C453.045013,211.847961 452.358734,209.681717 453.270081,206.601120 
	C453.647461,205.325470 453.920807,204.014313 454.369568,202.765350 
	C456.614410,196.517075 456.969971,196.486618 463.209259,198.173584 
	C466.705658,199.118942 470.363983,199.857590 473.967194,199.943588 
	C485.694366,200.223557 489.837189,195.512711 488.723419,183.805252 
	C484.657898,184.994812 480.648010,186.671204 476.481628,187.284760 
	C467.173523,188.655518 459.006927,184.525055 455.146820,175.966034 
	C448.191254,160.543671 447.809753,144.879028 456.507751,129.992325 
	C463.386658,118.218994 477.779053,114.796494 489.611053,121.661308 
	C492.678528,123.441025 494.621765,123.884781 497.872314,121.812943 
	C504.637573,117.500961 509.921936,119.834854 512.106384,127.474297 
	C512.384644,128.447281 512.148682,129.639450 511.910889,130.674942 
	C511.036682,134.481140 509.360718,138.243713 509.249481,142.059525 
	C508.842194,156.032837 509.267670,170.033356 508.733002,183.998886 
	C508.401642,192.653946 506.977112,201.290131 500.241882,208.260406 
M489.056976,163.983154 
	C489.057770,156.984009 489.066254,149.984833 489.056854,142.985703 
	C489.049774,137.723251 486.633057,134.731842 481.863800,134.035248 
	C476.892975,133.309235 474.284790,136.168930 473.101227,140.370682 
	C470.851105,148.358627 470.664581,156.469147 472.709686,164.563568 
	C473.587616,168.038315 475.338593,171.103973 479.311768,170.893921 
	C483.421997,170.676605 487.648865,169.831223 489.056976,163.983154 
z"/>
<path fill="#FC7927" opacity="1.000000" stroke="none" 
	d="
M326.159851,121.744217 
	C327.528961,125.758087 329.372223,129.463364 329.565308,133.252701 
	C330.039581,142.560089 329.667786,151.907455 329.804718,161.236267 
	C329.893463,167.282944 331.638306,169.156189 336.443512,168.995575 
	C341.297913,168.833328 344.965942,165.311539 344.972992,160.713135 
	C344.993347,147.414017 344.980194,134.114853 344.980194,120.167831 
	C351.961670,120.167831 358.505585,120.167831 365.753021,120.167831 
	C365.753021,122.281754 365.752869,124.054710 365.753052,125.827667 
	C365.754364,138.490921 365.536957,151.160126 365.881775,163.814011 
	C365.994598,167.953491 368.091248,172.028488 368.287201,176.179871 
	C368.412445,178.833130 367.215729,181.919846 365.662903,184.152237 
	C364.607941,185.668839 361.458160,187.241913 360.027649,186.704987 
	C355.402771,184.969147 351.139526,182.269775 345.916412,179.507797 
	C344.554382,180.415833 342.027588,182.304779 339.315887,183.874298 
	C324.404541,192.504974 310.189972,185.092667 309.093201,167.882797 
	C308.564240,159.583023 309.103180,151.220322 308.791687,142.899857 
	C308.552216,136.503616 307.739075,130.128860 307.111816,122.952950 
	C311.797546,118.636292 318.709900,117.814491 326.159851,121.744217 
z"/>
<path fill="#FC7927" opacity="1.000000" stroke="none" 
	d="
M402.487518,153.033829 
	C402.487122,163.028549 402.333649,172.532059 402.566589,182.026077 
	C402.653137,185.552811 401.337067,186.876022 398.032196,186.851868 
	C392.766083,186.813354 387.499451,186.841568 382.029510,186.841568 
	C382.029510,164.049957 382.029510,142.262497 382.029510,120.522697 
	C389.884583,117.777237 395.867493,119.679367 401.442688,126.465034 
	C405.306458,124.457176 408.946625,121.948654 412.974457,120.587532 
	C425.288391,116.426331 435.978882,122.548706 437.651794,135.424789 
	C438.888916,144.946899 438.209503,154.704330 438.737579,164.337524 
	C439.043793,169.923660 440.157196,175.461945 440.651276,181.044418 
	C440.753204,182.196014 439.892426,184.373489 439.182556,184.505676 
	C434.071136,185.457504 428.763397,186.998871 423.756500,186.390228 
	C419.057220,185.819000 418.025909,180.796356 417.939026,176.475464 
	C417.768280,167.978943 417.856781,159.477280 417.832520,150.977737 
	C417.827759,149.311462 418.186798,147.518661 417.694397,146.006897 
	C416.827087,143.344116 415.520325,138.747940 414.242310,138.694794 
	C410.764648,138.550171 407.137115,140.183319 403.732208,141.525833 
	C402.974152,141.824722 402.632751,143.804810 402.543060,145.042953 
	C402.362885,147.529877 402.488464,150.038925 402.487518,153.033829 
z"/>
<path fill="#FC7E2F" opacity="1.000000" stroke="none" 
	d="
M588.980225,187.041397 
	C578.145996,186.808853 578.147339,186.808853 578.145630,176.483521 
	C578.143921,165.653732 578.467834,154.808899 577.973328,144.001572 
	C577.777100,139.713608 575.323914,135.567886 574.741577,131.243851 
	C574.397705,128.690170 575.140625,125.583488 576.452820,123.346085 
	C577.446899,121.651192 580.150330,119.906265 582.029236,119.973381 
	C588.589844,120.207748 592.628418,124.787239 596.151306,130.398178 
	C597.297546,128.955521 598.094543,127.982048 598.859924,126.984314 
	C603.758911,120.598633 611.867920,117.801422 619.317871,120.284538 
	C620.309998,120.615242 621.502380,122.807770 621.288879,123.875610 
	C620.255249,129.046722 618.773254,134.128189 617.408203,139.404053 
	C614.199036,139.170731 611.759399,138.799088 609.329590,138.854385 
	C602.932861,138.999985 598.905090,143.217056 598.894653,149.605453 
	C598.878052,159.768784 598.574219,169.946274 599.024353,180.089706 
	C599.257446,185.340500 597.608948,187.466782 592.455383,186.970779 
	C591.468018,186.875748 590.458557,187.010651 588.980225,187.041397 
z"/>
<path fill="#FC7C2B" opacity="1.000000" stroke="none" 
	d="
M552.292053,139.885223 
	C547.845032,142.268936 546.355713,145.581299 546.490051,150.304779 
	C546.792786,160.948944 546.463989,171.609787 546.655151,182.259140 
	C546.714172,185.549744 545.427124,186.542435 542.396545,186.869781 
	C526.159790,188.623581 525.838928,188.388840 525.841980,172.250275 
	C525.843750,162.929092 526.231384,153.583832 525.663269,144.297226 
	C525.391968,139.861694 522.892883,135.601074 522.195984,131.137405 
	C521.822327,128.743515 522.585876,125.763069 523.846375,123.649818 
	C524.893677,121.893913 527.465271,119.880852 529.278992,119.956757 
	C535.984558,120.237381 540.315186,124.637314 543.821167,131.052551 
	C549.592896,120.496994 557.982483,117.865860 569.849609,121.063652 
	C568.219421,126.682297 566.756287,132.180328 564.926025,137.553329 
	C564.644043,138.381317 562.713928,138.934097 561.478638,139.093933 
	C558.561890,139.471344 555.604553,139.535263 552.292053,139.885223 
z"/>
<path fill="#FD7724" opacity="1.000000" stroke="none" 
	d="
M149.367065,196.416840 
	C150.261505,201.602325 151.290237,206.333496 151.787766,211.119904 
	C152.325348,216.291611 150.122833,219.202301 145.789993,219.927811 
	C139.770370,220.935760 136.347076,216.785828 137.267609,209.965714 
	C138.668015,199.590347 140.167892,189.213211 141.049561,178.788116 
	C141.693390,171.175339 141.820801,163.458221 141.339935,155.840546 
	C141.144943,152.751694 139.539062,148.421951 137.176361,147.028244 
	C126.484818,140.721542 124.545227,131.243149 126.365761,120.340508 
	C128.245972,109.080406 132.876877,99.069221 141.843170,91.509079 
	C142.729309,90.761909 143.685471,90.074997 144.688736,89.498672 
	C145.231354,89.186966 145.942459,89.168510 147.305817,88.844894 
	C147.450912,90.959099 147.687119,92.833527 147.692078,94.708565 
	C147.766312,122.833679 147.736145,150.959351 147.923325,179.083633 
	C147.960846,184.720779 148.798645,190.352585 149.367065,196.416840 
z"/>
<path fill="#FD7622" opacity="1.000000" stroke="none" 
	d="
M108.037674,93.169273 
	C113.815247,94.524178 116.199181,99.310562 118.059807,104.021805 
	C122.315666,114.797928 123.308983,125.201706 114.085411,134.596771 
	C111.979706,136.741638 111.279991,140.983765 111.205437,144.289307 
	C110.724144,165.628494 111.581390,186.893890 115.714867,207.931473 
	C117.155663,215.264526 114.952591,219.207184 109.651123,219.918961 
	C104.418846,220.621429 100.687180,217.557709 100.992401,212.299149 
	C101.271324,207.493546 102.477913,202.737778 102.698296,197.933548 
	C103.552238,179.317169 104.184715,160.690567 104.879402,142.067001 
	C105.083466,136.596603 101.068497,133.516861 98.037003,129.308792 
	C98.547676,128.354324 98.929848,128.054230 99.688080,127.794914 
	C100.722298,127.194489 102.068176,126.246056 101.938873,125.956650 
	C97.828537,116.756126 100.827728,107.892639 103.314224,98.895615 
	C104.052666,98.519440 104.529434,98.237152 105.255844,97.807587 
	C105.652176,97.115921 105.798866,96.571541 106.111649,95.766510 
	C106.864380,94.727005 107.451027,93.948135 108.037674,93.169273 
z"/>
<path fill="#FD7724" opacity="1.000000" stroke="none" 
	d="
M76.982376,108.009872 
	C76.987968,111.816742 76.832581,115.634926 77.098877,119.423470 
	C77.177094,120.536247 78.451210,121.564957 79.177223,122.632202 
	C79.751389,121.573448 80.800293,120.524712 80.822861,119.454338 
	C80.971718,112.393967 80.899750,105.328934 81.990891,97.990257 
	C82.428200,98.516182 83.154716,98.990654 83.258842,99.575867 
	C84.540237,106.777298 86.447365,113.971764 86.681526,121.216866 
	C86.826958,125.716743 85.313889,130.859879 82.939079,134.728271 
	C78.060516,142.675049 75.585831,150.819916 75.666199,160.183502 
	C75.803665,176.198761 76.388191,192.122726 79.757195,207.839859 
	C79.999504,208.970306 80.046555,210.153854 80.080559,211.315765 
	C80.250053,217.107574 77.484924,220.227753 72.392586,220.039780 
	C67.439613,219.856964 64.871201,216.241028 65.571335,210.594910 
	C66.839523,200.367859 68.301559,190.155731 69.201454,179.895172 
	C69.869339,172.279922 69.734055,164.596283 70.033867,156.946152 
	C70.331306,149.356812 68.191811,142.468018 64.116623,136.161224 
	C60.250591,130.178146 58.559731,123.869133 59.968250,116.707092 
	C61.534122,108.744957 62.719650,100.708015 65.042572,92.751152 
	C65.289970,97.800026 65.504700,102.850769 65.794182,107.897224 
	C66.070038,112.706070 65.325233,117.674377 66.546776,122.346115 
	C67.434303,122.300995 68.321831,122.255867 69.209366,122.210747 
	C69.399689,112.751465 69.590019,103.292191 70.086151,93.402054 
	C70.561737,93.000198 70.731506,93.029205 70.901276,93.058205 
	C70.937401,101.200470 70.869293,109.345612 71.094513,117.482643 
	C71.141548,119.181862 72.271797,120.851089 72.902863,122.534142 
	C73.653488,122.398384 74.404114,122.262619 75.154739,122.126854 
	C75.154739,117.758537 75.154739,113.390228 75.489281,108.556419 
	C76.210007,108.063911 76.596191,108.036888 76.982376,108.009872 
z"/>
<path fill="#FD7A28" opacity="1.000000" stroke="none" 
	d="
M51.691967,163.541214 
	C49.559082,158.480377 47.834419,153.148056 41.968494,148.739853 
	C42.486374,151.262833 42.713352,152.368607 42.940041,153.472992 
	C34.977371,153.949417 27.338356,141.128189 29.160009,130.031631 
	C33.859863,133.397049 38.484489,136.708603 43.561867,140.354889 
	C44.213810,140.304138 44.413002,139.918655 44.612198,139.533173 
	C40.619625,125.098717 43.737446,115.122444 55.256229,105.999962 
	C59.455391,117.373833 57.399399,127.680923 50.194702,138.447784 
	C49.579536,133.623657 49.092010,129.800461 48.524319,125.348587 
	C44.085999,134.251892 47.008854,142.329666 49.037159,150.181854 
	C50.876869,147.046021 52.729935,143.887421 54.583000,140.728821 
	C54.943195,140.951691 55.303391,141.174576 55.663582,141.397461 
	C55.087936,147.953171 53.478024,154.639557 54.284241,161.020676 
	C54.864304,165.611862 58.678932,169.789444 61.026077,174.164749 
	C61.940376,175.869064 62.787136,177.609634 62.874729,179.638580 
	C59.676392,177.151276 56.478054,174.663971 53.279716,172.176651 
	C52.956715,172.535583 52.633709,172.894531 52.310703,173.253464 
	C53.330494,175.243927 54.350285,177.234390 55.635918,179.743729 
	C45.962700,175.603317 36.731705,172.131973 34.734234,159.488754 
	C40.133469,161.120468 45.035763,162.602005 50.368950,164.494415 
	C51.101028,165.140823 51.402214,165.376343 51.703400,165.611862 
	C51.699593,164.921646 51.695782,164.231430 51.691967,163.541214 
M51.577446,173.184952 
	C51.512253,172.836533 51.447060,172.488113 51.381866,172.139694 
	C51.096859,172.226959 50.811848,172.314224 50.526836,172.401474 
	C50.647087,172.619873 50.767338,172.838272 51.577446,173.184952 
z"/>
<path fill="#FD7D2D" opacity="1.000000" stroke="none" 
	d="
M168.924683,154.997894 
	C167.760849,157.859726 166.596985,160.721558 165.133698,164.319702 
	C171.073624,162.670364 176.219162,161.241608 181.486130,159.779129 
	C181.469955,169.398895 174.148804,175.293671 161.460648,179.334320 
	C162.309479,177.516159 163.034714,175.962723 163.759949,174.409302 
	C163.560074,174.121841 163.360184,173.834396 163.160309,173.546951 
	C159.990646,175.500290 156.820969,177.453644 153.651306,179.406982 
	C153.405350,179.071167 153.159409,178.735352 152.913452,178.399536 
	C154.826096,175.401718 156.397110,172.102844 158.720139,169.466675 
	C164.106003,163.354813 161.241974,158.168304 158.135590,153.188446 
	C156.848480,151.125092 155.044907,149.383911 153.092178,147.034058 
	C159.467957,146.837891 162.723404,150.818893 166.673950,154.887543 
	C167.900558,154.960739 168.412628,154.979309 168.924683,154.997894 
M165.427063,173.012695 
	C165.486282,172.817062 165.545502,172.621414 165.604706,172.425766 
	C165.410324,172.496399 165.215942,172.567017 165.427063,173.012695 
z"/>
<path fill="#FD7C2C" opacity="1.000000" stroke="none" 
	d="
M170.959854,137.991074 
	C170.560211,134.481522 170.160553,130.971985 169.760910,127.462440 
	C169.329407,127.460800 168.897903,127.459160 168.466415,127.457527 
	C167.940918,130.713562 167.415436,133.969604 166.752014,138.080246 
	C159.793701,127.746445 157.886032,117.501472 161.475281,106.078659 
	C172.550598,114.172066 176.792313,126.483475 172.031525,137.758102 
	C171.318314,137.997543 171.139084,137.994308 170.959854,137.991074 
z"/>
<path fill="#FD7C2C" opacity="1.000000" stroke="none" 
	d="
M169.158264,154.753052 
	C168.412628,154.979309 167.900558,154.960739 167.005432,154.905426 
	C167.723053,150.824661 168.823746,146.780624 170.385223,142.366882 
	C171.870392,141.441101 172.894791,140.885040 173.919205,140.328964 
	C178.054764,137.309891 182.190323,134.290802 186.883636,131.131149 
	C187.783539,130.998550 188.125656,131.006546 188.467789,131.014526 
	C188.532761,132.093796 188.597733,133.173065 188.269989,134.699036 
	C187.886490,135.752243 187.895706,136.358765 187.904907,136.965271 
	C187.198395,144.147125 183.370758,149.341095 177.319427,152.886703 
	C176.269821,153.501678 174.466858,152.830856 173.421005,152.314636 
	C175.274185,149.958862 176.718216,148.042389 178.162247,146.125900 
	C177.570297,145.701996 176.978363,145.278076 176.386414,144.854156 
	C174.924515,146.851562 173.462616,148.848953 172.000702,150.846359 
	C171.131088,152.066971 170.261459,153.287582 169.158264,154.753052 
M180.175293,143.755524 
	C180.119843,143.588318 180.064392,143.421112 180.008942,143.253891 
	C179.954865,143.422119 179.900787,143.590347 180.175293,143.755524 
z"/>
<path fill="#FD8F4A" opacity="1.000000" stroke="none" 
	d="
M99.312027,127.754135 
	C98.929848,128.054230 98.547676,128.354324 97.977783,128.970581 
	C93.705048,125.965179 93.416687,121.327881 94.003708,116.745377 
	C94.557579,112.421631 95.894600,108.198196 97.432312,103.945572 
	C98.201683,104.147217 98.425865,104.333923 98.521118,104.904671 
	C97.998314,107.059288 97.372543,108.814392 97.253174,110.603287 
	C96.864128,116.433136 95.138039,122.461777 99.312027,127.754135 
z"/>
<path fill="#FD8F4A" opacity="1.000000" stroke="none" 
	d="
M105.006195,97.954865 
	C104.529434,98.237152 104.052666,98.519440 102.965271,98.920250 
	C101.119789,100.866058 99.884918,102.693344 98.650055,104.520630 
	C98.425865,104.333923 98.201683,104.147217 97.651558,103.664322 
	C99.221153,98.540443 101.398315,93.983788 107.666992,93.088699 
	C107.451027,93.948135 106.864380,94.727005 105.879059,95.928940 
	C105.322327,96.886299 105.164261,97.420578 105.006195,97.954865 
z"/>
<path fill="#FEA46C" opacity="1.000000" stroke="none" 
	d="
M77.060623,107.547150 
	C76.596191,108.036888 76.210007,108.063911 75.533722,108.099785 
	C75.243622,102.859337 75.243622,97.610031 75.243622,92.360725 
	C75.875374,92.356728 76.507126,92.352722 77.138878,92.348724 
	C77.138878,97.260628 77.138878,102.172523 77.060623,107.547150 
z"/>
<path fill="#FD7D2D" opacity="1.000000" stroke="none" 
	d="
M172.263458,150.964142 
	C173.462616,148.848953 174.924515,146.851562 176.386414,144.854156 
	C176.978363,145.278076 177.570297,145.701996 178.162247,146.125900 
	C176.718216,148.042389 175.274185,149.958862 173.502640,151.936630 
	C172.958817,151.692596 172.742508,151.387268 172.263458,150.964142 
z"/>
<path fill="#FD7D2D" opacity="1.000000" stroke="none" 
	d="
M173.551880,140.332443 
	C172.894791,140.885040 171.870392,141.441101 170.531647,142.000244 
	C170.341568,140.859055 170.465790,139.714798 170.774933,138.280792 
	C171.139084,137.994308 171.318314,137.997543 171.766403,138.006424 
	C172.418350,138.786697 172.801453,139.561310 173.551880,140.332443 
z"/>
<path fill="#FD7D2D" opacity="1.000000" stroke="none" 
	d="
M188.573029,130.769180 
	C188.125656,131.006546 187.783539,130.998550 187.184540,130.982269 
	C187.349960,130.367737 187.772263,129.761520 188.194580,129.155304 
	C188.355804,129.611481 188.517029,130.067657 188.573029,130.769180 
z"/>
<path fill="#FD7D2D" opacity="1.000000" stroke="none" 
	d="
M188.073257,136.754791 
	C187.895706,136.358765 187.886490,135.752243 188.105621,135.073639 
	C188.303177,135.515808 188.272400,136.030075 188.073257,136.754791 
z"/>
<path fill="#FEAA76" opacity="1.000000" stroke="none" 
	d="
M70.914963,92.759979 
	C70.731506,93.029205 70.561737,93.000198 70.136002,92.928459 
	C70.229568,92.744400 70.579109,92.603073 70.914963,92.759979 
z"/>
<path fill="#FFFBF9" opacity="1.000000" stroke="none" 
	d="
M489.051727,164.422150 
	C487.648865,169.831223 483.421997,170.676605 479.311768,170.893921 
	C475.338593,171.103973 473.587616,168.038315 472.709686,164.563568 
	C470.664581,156.469147 470.851105,148.358627 473.101227,140.370682 
	C474.284790,136.168930 476.892975,133.309235 481.863800,134.035248 
	C486.633057,134.731842 489.049774,137.723251 489.056854,142.985703 
	C489.066254,149.984833 489.057770,156.984009 489.051727,164.422150 
z"/>
<path fill="#FFF3EC" opacity="1.000000" stroke="none" 
	d="
M98.521118,104.904671 
	C99.884918,102.693344 101.119789,100.866058 102.703613,99.014145 
	C100.827728,107.892639 97.828537,116.756126 101.938873,125.956650 
	C102.068176,126.246056 100.722298,127.194489 99.688080,127.794922 
	C95.138039,122.461777 96.864128,116.433136 97.253174,110.603287 
	C97.372543,108.814392 97.998314,107.059288 98.521118,104.904671 
z"/>
<path fill="#FD914D" opacity="1.000000" stroke="none" 
	d="
M105.255836,97.807587 
	C105.164261,97.420578 105.322327,96.886299 105.712982,96.189590 
	C105.798866,96.571541 105.652176,97.115921 105.255836,97.807587 
z"/>
<path fill="#FFFEFE" opacity="1.000000" stroke="none" 
	d="
M51.410042,163.726273 
	C51.695782,164.231430 51.699593,164.921646 51.703400,165.611862 
	C51.402214,165.376343 51.101028,165.140823 50.702354,164.621094 
	C50.779278,164.195038 50.953697,164.053192 51.410042,163.726273 
z"/>
<path fill="#FFFEFE" opacity="1.000000" stroke="none" 
	d="
M51.232513,173.120819 
	C50.767338,172.838272 50.647087,172.619873 50.526836,172.401474 
	C50.811848,172.314224 51.096859,172.226959 51.381866,172.139694 
	C51.447060,172.488113 51.512253,172.836533 51.232513,173.120819 
z"/>
<path fill="#FFFEFE" opacity="1.000000" stroke="none" 
	d="
M44.383110,139.705750 
	C44.413002,139.918655 44.213810,140.304138 43.875340,140.480408 
	C43.875389,140.140213 44.014709,140.009262 44.383110,139.705750 
z"/>
<path fill="#FFFEFE" opacity="1.000000" stroke="none" 
	d="
M165.224304,172.825165 
	C165.215942,172.567017 165.410324,172.496399 165.604706,172.425766 
	C165.545502,172.621414 165.486282,172.817062 165.224304,172.825165 
z"/>
<path fill="#FD7D2D" opacity="1.000000" stroke="none" 
	d="
M180.010986,143.757050 
	C179.900787,143.590347 179.954865,143.422119 180.008942,143.253891 
	C180.064392,143.421112 180.119843,143.588318 180.010986,143.757050 
z"/>
</svg>