<svg version="1.1" id="Layer_1" xmlns="http://www.w3.org/2000/svg" xmlns:xlink="http://www.w3.org/1999/xlink" x="0px" y="0px"
	 width="100%" viewBox="0 0 627 627" enable-background="new 0 0 627 627" xml:space="preserve">
<path fill="#FFFFFF" opacity="1.000000" stroke="none" 
	d="
M351.000000,628.000000 
	C234.000015,628.000000 117.500038,628.000000 1.000047,628.000000 
	C1.000031,419.000061 1.000031,210.000122 1.000016,1.000131 
	C209.999893,1.000087 418.999786,1.000087 627.999756,1.000044 
	C627.999878,209.999863 627.999878,418.999725 627.999939,627.999756 
	C535.833313,628.000000 443.666656,628.000000 351.000000,628.000000 
M34.823807,322.092499 
	C37.810677,326.906250 40.797546,331.720001 43.784420,336.533722 
	C39.940151,336.178589 37.215775,335.043182 34.393436,334.261475 
	C31.589081,333.484711 28.686211,333.063629 25.573097,332.435425 
	C28.620251,343.282166 31.252310,345.769379 46.722885,352.210693 
	C45.263199,349.628784 44.316139,347.953613 43.369080,346.278442 
	C43.568420,345.916016 43.767761,345.553558 43.967102,345.191101 
	C47.581642,347.550842 51.196186,349.910583 54.810730,352.270325 
	C45.639748,340.846924 43.570641,328.164307 47.171741,314.211365 
	C46.639675,314.044373 46.107605,313.877380 45.575539,313.710358 
	C43.788303,316.686371 42.001068,319.662354 40.263927,322.554932 
	C36.549938,311.450165 36.362164,304.664398 39.628906,298.604675 
	C40.174438,302.499695 40.719971,306.394745 41.393997,311.207184 
	C49.343742,298.086273 50.667519,287.271301 45.898808,278.549255 
	C36.469845,287.656189 30.474871,297.942688 35.440620,311.994171 
	C35.022186,312.061218 34.603748,312.128235 34.185314,312.195251 
	C29.505690,309.023499 24.826065,305.851746 20.138084,302.674347 
	C18.756901,314.300293 23.459547,322.200043 35.607224,328.329803 
	C34.803192,326.251190 34.099163,324.431091 33.825092,322.192657 
	C33.959404,322.044525 34.093719,321.896393 34.823807,322.092499 
M144.662140,319.838806 
	C144.432053,319.624542 144.201965,319.410248 143.971863,319.195984 
	C144.336319,319.456177 144.700775,319.716339 145.016785,320.665863 
	C146.622971,322.571777 148.480118,324.321198 149.785416,326.414703 
	C152.929871,331.458069 154.607391,336.504486 150.071365,341.956329 
	C147.416489,345.147247 145.529877,348.977417 143.297653,352.519989 
	C143.537994,352.789368 143.778336,353.058716 144.018692,353.328094 
	C147.327820,350.990997 150.636948,348.653931 153.946075,346.316833 
	C154.197983,346.607025 154.449890,346.897217 154.701797,347.187378 
	C154.021484,348.840546 153.341187,350.493713 152.517578,352.495117 
	C162.416656,348.592010 171.433365,344.565765 173.551163,332.314392 
	C167.824112,333.768982 162.656143,335.081573 155.938080,336.787872 
	C158.657776,331.647888 160.639832,327.901978 162.621887,324.156067 
	C163.075043,324.335663 163.528198,324.515259 163.981354,324.694855 
	C163.862930,326.089264 163.744507,327.483643 163.627090,328.874542 
	C176.568573,321.432861 181.177261,313.634460 179.513596,302.506622 
	C174.586044,305.844940 169.504959,309.287262 164.423874,312.729553 
	C164.023193,312.633575 163.622513,312.537598 163.221832,312.441620 
	C169.253906,297.995636 162.851685,287.789886 152.824341,278.092987 
	C149.012436,290.060272 151.129547,300.365326 157.786102,310.798523 
	C158.520065,307.091248 159.116592,304.078247 159.713104,301.065277 
	C160.176468,301.156586 160.639832,301.247894 161.103210,301.339203 
	C163.498917,310.619598 160.224319,319.125824 156.951324,328.449493 
	C154.262299,322.827667 150.757187,319.699402 144.662140,319.838806 
M97.543991,265.676636 
	C91.908623,267.401794 89.645752,271.938202 87.686615,277.668427 
	C83.764252,288.401642 83.415924,298.330078 92.795876,306.954681 
	C94.795540,308.793335 95.823257,312.576416 95.876625,315.489746 
	C96.098953,327.626373 96.197754,339.796051 95.531219,351.908997 
	C94.938637,362.678040 93.162659,373.377319 92.134155,384.128937 
	C91.604599,389.664764 94.795578,392.986023 99.886436,392.792664 
	C104.848717,392.604248 107.875084,388.912750 107.338142,383.666748 
	C107.202766,382.344116 107.049904,381.015991 106.784225,379.715057 
	C102.495888,358.716461 101.996567,337.442657 102.483521,316.137238 
	C102.557610,312.895569 103.796349,309.130646 105.758499,306.577789 
	C113.996964,295.859222 114.367920,280.799133 105.648880,270.477386 
	C103.853104,268.351501 100.587608,267.467102 97.543991,265.676636 
M282.668945,343.493866 
	C282.670441,336.666565 282.673187,329.839233 282.673096,323.011932 
	C282.672882,306.359955 282.733093,289.707397 282.568237,273.057037 
	C282.552948,271.511108 281.185120,268.700317 280.310974,268.646149 
	C274.095673,268.261108 267.845428,268.441010 261.174316,268.441010 
	C261.174316,280.620026 261.174316,291.881989 261.174316,303.387817 
	C251.663086,303.387817 242.608688,303.387817 232.997894,303.387817 
	C232.997894,291.706146 232.997894,280.313080 232.997894,268.609985 
	C225.729752,268.609985 219.024033,268.609985 212.383347,268.609985 
	C212.383347,299.119019 212.383347,328.990814 212.383347,359.106445 
	C219.443710,359.106445 226.114609,359.106445 233.327240,359.106445 
	C233.327240,346.179230 233.327240,333.958618 233.327240,321.850739 
	C242.926666,321.850739 251.966629,321.850739 261.283234,321.850739 
	C261.283234,333.273499 261.374084,344.241913 261.223145,355.206970 
	C261.182373,358.169861 262.134613,359.558044 265.110779,359.555298 
	C269.270050,359.551453 273.434784,359.498627 277.587189,359.686859 
	C281.777954,359.876831 283.126587,357.988403 282.734131,353.976135 
	C282.427612,350.842133 282.671173,347.654358 282.668945,343.493866 
M442.107544,334.329254 
	C443.095520,338.186005 443.684509,342.201965 445.147797,345.869049 
	C449.206482,356.040436 457.131897,361.248383 467.222717,360.131134 
	C471.555573,359.651428 475.748810,357.911072 479.978821,356.750763 
	C481.308655,367.979309 477.082336,373.041931 465.693665,372.570190 
	C460.145966,372.340424 454.652405,370.803192 448.201141,369.697906 
	C447.102722,372.722015 445.786438,376.235443 444.552338,379.777527 
	C443.496582,382.807617 444.678009,384.687988 447.796539,385.059052 
	C456.496063,386.094086 465.220673,387.865326 473.917084,387.764740 
	C488.057098,387.601288 495.976440,380.310364 498.844208,366.549957 
	C499.453400,363.626923 499.993622,360.634125 500.058197,357.662445 
	C500.369110,343.353333 500.332123,329.034485 500.821320,314.732849 
	C500.951813,310.918304 502.542755,307.160950 503.378357,303.358673 
	C503.612213,302.294495 503.842529,301.081665 503.566193,300.076813 
	C501.546387,292.733032 496.880371,290.603333 490.067657,293.879944 
	C488.445068,294.660339 486.956146,295.718628 485.349426,296.682892 
	C484.565857,296.241058 483.836395,295.852539 483.128998,295.427429 
	C467.874023,286.260345 451.846985,291.594116 444.998016,307.954224 
	C441.538788,316.217255 441.404510,324.765320 442.107544,334.329254 
M409.123291,348.161530 
	C409.395538,352.802338 410.024750,357.681335 415.102356,359.239838 
	C421.402679,361.173615 427.536926,360.166107 431.813232,356.427582 
	C431.125549,350.026886 430.225006,344.648621 430.040314,339.245880 
	C429.738770,330.422516 430.235199,321.566956 429.803528,312.753967 
	C428.889374,294.090088 414.274048,286.423706 398.271118,295.984955 
	C396.445770,297.075531 394.650818,298.216919 392.446259,299.579163 
	C389.652588,292.620422 383.966614,292.137848 377.834656,292.058136 
	C374.176910,292.010590 372.938965,293.010956 372.976990,296.829834 
	C373.161072,315.327332 373.055847,333.827637 373.053253,352.326965 
	C373.052948,354.458069 373.053223,356.589203 373.053223,359.611023 
	C378.851227,359.611023 384.135254,359.558716 389.417633,359.629791 
	C392.821777,359.675598 393.933716,358.192413 393.879425,354.769836 
	C393.691864,342.939911 393.793640,331.105133 393.811676,319.272278 
	C393.819244,314.318695 397.309967,310.970673 402.624146,310.740631 
	C407.180939,310.543365 408.927521,312.513885 409.027344,318.736420 
	C409.179688,328.233765 409.089172,337.734955 409.123291,348.161530 
M344.484009,357.093445 
	C348.150574,358.819611 352.000397,361.888763 355.843994,358.323181 
	C359.652130,354.790466 361.818237,350.552063 357.946320,345.255768 
	C356.838623,343.740540 357.063171,341.094299 357.047760,338.963989 
	C356.967194,327.812653 357.005615,316.660461 357.003265,305.508545 
	C357.002411,301.408447 357.003143,297.308380 357.003143,292.830383 
	C349.772919,292.830383 343.219940,292.830383 336.220459,292.830383 
	C336.220459,295.273285 336.220764,297.078308 336.220428,298.883301 
	C336.218170,310.700989 336.253082,322.518890 336.192108,334.336273 
	C336.172119,338.209473 332.258240,341.479736 327.749176,341.622131 
	C323.281464,341.763245 321.280396,339.899170 321.089233,334.855042 
	C320.881317,329.369507 320.987213,323.872040 320.958557,318.379761 
	C320.932495,313.386780 321.106140,308.382721 320.824677,303.404266 
	C320.587219,299.204620 319.828125,294.993439 315.315704,292.982422 
	C309.691315,290.475922 301.918427,292.131897 298.322113,295.797729 
	C298.956299,302.334778 299.744507,308.039001 300.014038,313.767578 
	C300.498047,324.053772 299.804016,334.473114 301.191376,344.619507 
	C302.944916,357.443695 314.018402,363.325012 326.133850,358.652466 
	C330.551208,356.948883 334.498047,354.025269 338.818573,351.567810 
	C340.397003,353.159698 342.136261,354.913788 344.484009,357.093445 
M590.347778,356.722595 
	C590.355957,345.224579 590.350586,333.726532 590.377747,322.228546 
	C590.392090,316.148895 594.350525,311.933167 600.444824,311.592712 
	C602.092834,311.500671 603.777039,311.973724 605.416565,311.840576 
	C606.575378,311.746460 608.456177,311.326202 608.697083,310.609009 
	C610.556519,305.072632 612.094360,299.428223 613.753235,293.744354 
	C601.841675,290.299530 593.571960,293.402527 587.573669,303.628998 
	C584.350708,297.062225 579.991516,293.291840 573.761658,292.591583 
	C572.079346,292.402496 569.422241,293.560974 568.567078,294.940521 
	C567.027161,297.424561 564.839111,301.672363 565.866882,303.193390 
	C569.564026,308.665192 569.516541,314.486969 569.552490,320.461487 
	C569.608582,329.792938 569.567383,339.125000 569.567383,348.456787 
	C569.567444,359.982574 569.572449,360.125336 581.165955,359.717285 
	C584.217590,359.609894 587.227600,358.321533 590.347778,356.722595 
M512.797363,302.941742 
	C514.232300,307.087494 516.519775,311.154114 516.913757,315.396515 
	C517.603577,322.825287 517.136353,330.361969 517.144104,337.853455 
	C517.151306,344.802704 517.145630,351.751984 517.145630,359.623138 
	C522.988892,359.623138 528.263550,359.571045 533.536560,359.641876 
	C536.915100,359.687195 538.085938,358.260742 538.021057,354.811768 
	C537.820496,344.160767 537.943298,333.503571 537.951294,322.848785 
	C537.956848,315.440918 542.463806,310.647858 549.804077,311.767883 
	C555.421021,312.624908 557.375549,310.350128 558.356018,305.701447 
	C559.198608,301.706482 560.024658,297.708008 560.838684,293.803802 
	C549.347778,290.275574 544.118591,292.241791 535.211670,303.068909 
	C534.123962,301.544586 533.155701,300.028046 532.029541,298.639618 
	C528.693848,294.526886 523.934448,291.200714 519.185059,292.640900 
	C516.255493,293.529266 514.690735,298.918365 512.797363,302.941742 
M129.682068,375.949493 
	C129.188263,379.070251 128.420425,382.177551 128.266159,385.315033 
	C128.045792,389.797058 130.881653,392.672485 135.137177,392.830566 
	C139.588959,392.995941 142.584991,390.591949 142.914185,386.194519 
	C143.072830,384.075287 142.622192,381.902618 142.376678,379.762268 
	C141.258713,370.015076 139.304062,360.284698 139.135971,350.522705 
	C138.660004,322.879028 138.911530,295.222839 138.877060,267.571564 
	C138.874695,265.676666 138.876755,263.781738 138.876755,260.600159 
	C136.038620,262.328400 134.268982,263.122437 132.840408,264.322510 
	C124.427086,271.390198 119.959152,280.813324 117.832245,291.291840 
	C115.481644,302.872406 117.014557,313.266449 128.703995,319.689484 
	C132.439590,321.742065 132.938782,325.512329 132.718750,329.277222 
	C131.825867,344.554108 130.818420,359.824249 129.682068,375.949493 
M58.349899,373.629791 
	C57.777901,377.076569 57.077129,380.508026 56.664108,383.973755 
	C56.045181,389.167267 58.950409,392.734833 63.672665,392.851501 
	C68.472366,392.970093 71.442162,389.747620 71.305183,384.469818 
	C71.266449,382.977356 71.132957,381.463226 70.823578,380.005585 
	C67.344658,363.614746 66.754288,347.011749 66.862823,330.326569 
	C66.908623,323.286499 68.086617,316.509583 72.272667,310.932220 
	C78.194656,303.041901 79.111458,294.697968 76.961571,285.432281 
	C75.407784,278.735657 74.423027,271.907043 73.184502,265.137299 
	C72.074890,270.310242 72.093300,275.371094 72.071281,280.431702 
	C72.015327,293.291260 72.008087,293.291229 69.070358,295.353210 
	C68.600769,284.922638 68.150871,274.929626 67.700981,264.936615 
	C67.133881,264.957428 66.566780,264.978271 65.999680,264.999084 
	C65.999680,274.941010 65.999680,284.882965 65.999680,295.397339 
	C64.588348,294.702057 63.829594,294.524231 63.812416,294.291595 
	C63.087978,284.484070 62.429752,274.671631 61.763317,264.859802 
	C61.252827,264.854950 60.742336,264.850098 60.231846,264.845245 
	C60.231846,274.863800 60.231846,284.882355 60.231846,294.900909 
	C59.444366,294.928955 58.656887,294.957031 57.869408,294.985077 
	C56.119740,290.345703 57.276382,285.282379 56.948105,280.450378 
	C56.600227,275.329834 56.492359,270.192993 56.279671,265.063263 
	C53.995602,272.308838 52.903893,279.542389 51.470158,286.707489 
	C49.862011,294.744171 51.101833,301.955048 55.259979,309.194519 
	C58.075493,314.096405 60.716148,319.991058 60.722813,325.445007 
	C60.742100,341.220856 59.390217,356.998444 58.349899,373.629791 
z"/>
<path fill="#FC7826" opacity="1.000000" stroke="none" 
	d="
M282.669617,343.992188 
	C282.671173,347.654358 282.427612,350.842133 282.734131,353.976135 
	C283.126587,357.988403 281.777954,359.876831 277.587189,359.686859 
	C273.434784,359.498627 269.270050,359.551453 265.110779,359.555298 
	C262.134613,359.558044 261.182373,358.169861 261.223145,355.206970 
	C261.374084,344.241913 261.283234,333.273499 261.283234,321.850739 
	C251.966629,321.850739 242.926666,321.850739 233.327240,321.850739 
	C233.327240,333.958618 233.327240,346.179230 233.327240,359.106445 
	C226.114609,359.106445 219.443710,359.106445 212.383347,359.106445 
	C212.383347,328.990814 212.383347,299.119019 212.383347,268.609985 
	C219.024033,268.609985 225.729752,268.609985 232.997894,268.609985 
	C232.997894,280.313080 232.997894,291.706146 232.997894,303.387817 
	C242.608688,303.387817 251.663086,303.387817 261.174316,303.387817 
	C261.174316,291.881989 261.174316,280.620026 261.174316,268.441010 
	C267.845428,268.441010 274.095673,268.261108 280.310974,268.646149 
	C281.185120,268.700317 282.552948,271.511108 282.568237,273.057037 
	C282.733093,289.707397 282.672882,306.359955 282.673096,323.011932 
	C282.673187,329.839233 282.670441,336.666565 282.669617,343.992188 
z"/>
<path fill="#FC7C2B" opacity="1.000000" stroke="none" 
	d="
M442.074524,333.890320 
	C441.404510,324.765320 441.538788,316.217255 444.998016,307.954224 
	C451.846985,291.594116 467.874023,286.260345 483.128998,295.427429 
	C483.836395,295.852539 484.565857,296.241058 485.349426,296.682892 
	C486.956146,295.718628 488.445068,294.660339 490.067657,293.879944 
	C496.880371,290.603333 501.546387,292.733032 503.566193,300.076813 
	C503.842529,301.081665 503.612213,302.294495 503.378357,303.358673 
	C502.542755,307.160950 500.951813,310.918304 500.821320,314.732849 
	C500.332123,329.034485 500.369110,343.353333 500.058197,357.662445 
	C499.993622,360.634125 499.453400,363.626923 498.844208,366.549957 
	C495.976440,380.310364 488.057098,387.601288 473.917084,387.764740 
	C465.220673,387.865326 456.496063,386.094086 447.796539,385.059052 
	C444.678009,384.687988 443.496582,382.807617 444.552338,379.777527 
	C445.786438,376.235443 447.102722,372.722015 448.201141,369.697906 
	C454.652405,370.803192 460.145966,372.340424 465.693665,372.570190 
	C477.082336,373.041931 481.308655,367.979309 479.978821,356.750763 
	C475.748810,357.911072 471.555573,359.651428 467.222717,360.131134 
	C457.131897,361.248383 449.206482,356.040436 445.147797,345.869049 
	C443.684509,342.201965 443.095520,338.186005 442.074524,333.890320 
M463.639435,316.448364 
	C463.870483,323.697906 463.692047,330.993591 464.501923,338.177887 
	C464.918884,341.876953 468.009918,344.464294 472.159210,343.603149 
	C477.864471,342.419006 480.796021,340.073059 480.493317,335.542847 
	C480.017395,328.420746 480.582733,321.232697 480.225494,314.096680 
	C480.127869,312.146545 478.775452,309.642761 477.197418,308.492584 
	C471.169342,304.098877 466.018219,306.981140 463.639435,316.448364 
z"/>
<path fill="#FC7A29" opacity="1.000000" stroke="none" 
	d="
M409.112549,347.698029 
	C409.089172,337.734955 409.179688,328.233765 409.027344,318.736420 
	C408.927521,312.513885 407.180939,310.543365 402.624146,310.740631 
	C397.309967,310.970673 393.819244,314.318695 393.811676,319.272278 
	C393.793640,331.105133 393.691864,342.939911 393.879425,354.769836 
	C393.933716,358.192413 392.821777,359.675598 389.417633,359.629791 
	C384.135254,359.558716 378.851227,359.611023 373.053223,359.611023 
	C373.053223,356.589203 373.052948,354.458069 373.053253,352.326965 
	C373.055847,333.827637 373.161072,315.327332 372.976990,296.829834 
	C372.938965,293.010956 374.176910,292.010590 377.834656,292.058136 
	C383.966614,292.137848 389.652588,292.620422 392.446259,299.579163 
	C394.650818,298.216919 396.445770,297.075531 398.271118,295.984955 
	C414.274048,286.423706 428.889374,294.090088 429.803528,312.753967 
	C430.235199,321.566956 429.738770,330.422516 430.040314,339.245880 
	C430.225006,344.648621 431.125549,350.026886 431.813232,356.427582 
	C427.536926,360.166107 421.402679,361.173615 415.102356,359.239838 
	C410.024750,357.681335 409.395538,352.802338 409.112549,347.698029 
z"/>
<path fill="#FC7927" opacity="1.000000" stroke="none" 
	d="
M344.179749,356.880676 
	C342.136261,354.913788 340.397003,353.159698 338.818573,351.567810 
	C334.498047,354.025269 330.551208,356.948883 326.133850,358.652466 
	C314.018402,363.325012 302.944916,357.443695 301.191376,344.619507 
	C299.804016,334.473114 300.498047,324.053772 300.014038,313.767578 
	C299.744507,308.039001 298.956299,302.334778 298.322113,295.797729 
	C301.918427,292.131897 309.691315,290.475922 315.315704,292.982422 
	C319.828125,294.993439 320.587219,299.204620 320.824677,303.404266 
	C321.106140,308.382721 320.932495,313.386780 320.958557,318.379761 
	C320.987213,323.872040 320.881317,329.369507 321.089233,334.855042 
	C321.280396,339.899170 323.281464,341.763245 327.749176,341.622131 
	C332.258240,341.479736 336.172119,338.209473 336.192108,334.336273 
	C336.253082,322.518890 336.218170,310.700989 336.220428,298.883301 
	C336.220764,297.078308 336.220459,295.273285 336.220459,292.830383 
	C343.219940,292.830383 349.772919,292.830383 357.003143,292.830383 
	C357.003143,297.308380 357.002411,301.408447 357.003265,305.508545 
	C357.005615,316.660461 356.967194,327.812653 357.047760,338.963989 
	C357.063171,341.094299 356.838623,343.740540 357.946320,345.255768 
	C361.818237,350.552063 359.652130,354.790466 355.843994,358.323181 
	C352.000397,361.888763 348.150574,358.819611 344.179749,356.880676 
z"/>
<path fill="#FC7D2D" opacity="1.000000" stroke="none" 
	d="
M590.302246,357.149048 
	C587.227600,358.321533 584.217590,359.609894 581.165955,359.717285 
	C569.572449,360.125336 569.567444,359.982574 569.567383,348.456787 
	C569.567383,339.125000 569.608582,329.792938 569.552490,320.461487 
	C569.516541,314.486969 569.564026,308.665192 565.866882,303.193390 
	C564.839111,301.672363 567.027161,297.424561 568.567078,294.940521 
	C569.422241,293.560974 572.079346,292.402496 573.761658,292.591583 
	C579.991516,293.291840 584.350708,297.062225 587.573669,303.628998 
	C593.571960,293.402527 601.841675,290.299530 613.753235,293.744354 
	C612.094360,299.428223 610.556519,305.072632 608.697083,310.609009 
	C608.456177,311.326202 606.575378,311.746460 605.416565,311.840576 
	C603.777039,311.973724 602.092834,311.500671 600.444824,311.592712 
	C594.350525,311.933167 590.392090,316.148895 590.377747,322.228546 
	C590.350586,333.726532 590.355957,345.224579 590.302246,357.149048 
z"/>
<path fill="#FC7D2E" opacity="1.000000" stroke="none" 
	d="
M512.655273,302.614258 
	C514.690735,298.918365 516.255493,293.529266 519.185059,292.640900 
	C523.934448,291.200714 528.693848,294.526886 532.029541,298.639618 
	C533.155701,300.028046 534.123962,301.544586 535.211670,303.068909 
	C544.118591,292.241791 549.347778,290.275574 560.838684,293.803802 
	C560.024658,297.708008 559.198608,301.706482 558.356018,305.701447 
	C557.375549,310.350128 555.421021,312.624908 549.804077,311.767883 
	C542.463806,310.647858 537.956848,315.440918 537.951294,322.848785 
	C537.943298,333.503571 537.820496,344.160767 538.021057,354.811768 
	C538.085938,358.260742 536.915100,359.687195 533.536560,359.641876 
	C528.263550,359.571045 522.988892,359.623138 517.145630,359.623138 
	C517.145630,351.751984 517.151306,344.802704 517.144104,337.853455 
	C517.136353,330.361969 517.603577,322.825287 516.913757,315.396515 
	C516.519775,311.154114 514.232300,307.087494 512.655273,302.614258 
z"/>
<path fill="#FD7723" opacity="1.000000" stroke="none" 
	d="
M129.767654,375.523193 
	C130.818420,359.824249 131.825867,344.554108 132.718750,329.277222 
	C132.938782,325.512329 132.439590,321.742065 128.703995,319.689484 
	C117.014557,313.266449 115.481644,302.872406 117.832245,291.291840 
	C119.959152,280.813324 124.427086,271.390198 132.840408,264.322510 
	C134.268982,263.122437 136.038620,262.328400 138.876755,260.600159 
	C138.876755,263.781738 138.874695,265.676666 138.877060,267.571564 
	C138.911530,295.222839 138.660004,322.879028 139.135971,350.522705 
	C139.304062,360.284698 141.258713,370.015076 142.376678,379.762268 
	C142.622192,381.902618 143.072830,384.075287 142.914185,386.194519 
	C142.584991,390.591949 139.588959,392.995941 135.137177,392.830566 
	C130.881653,392.672485 128.045792,389.797058 128.266159,385.315033 
	C128.420425,382.177551 129.188263,379.070251 129.767654,375.523193 
z"/>
<path fill="#FD7826" opacity="1.000000" stroke="none" 
	d="
M58.463249,373.202576 
	C59.390217,356.998444 60.742100,341.220856 60.722813,325.445007 
	C60.716148,319.991058 58.075493,314.096405 55.259979,309.194519 
	C51.101833,301.955048 49.862011,294.744171 51.470158,286.707489 
	C52.903893,279.542389 53.995602,272.308838 56.279671,265.063263 
	C56.492359,270.192993 56.600227,275.329834 56.948105,280.450378 
	C57.276382,285.282379 56.119740,290.345703 57.869408,294.985077 
	C58.656887,294.957031 59.444366,294.928955 60.231846,294.900909 
	C60.231846,284.882355 60.231846,274.863800 60.231846,264.845245 
	C60.742336,264.850098 61.252827,264.854950 61.763317,264.859802 
	C62.429752,274.671631 63.087978,284.484070 63.812416,294.291595 
	C63.829594,294.524231 64.588348,294.702057 65.999680,295.397339 
	C65.999680,284.882965 65.999680,274.941010 65.999680,264.999084 
	C66.566780,264.978271 67.133881,264.957428 67.700981,264.936615 
	C68.150871,274.929626 68.600769,284.922638 69.070358,295.353210 
	C72.008087,293.291229 72.015327,293.291260 72.071281,280.431702 
	C72.093300,275.371094 72.074890,270.310242 73.184502,265.137299 
	C74.423027,271.907043 75.407784,278.735657 76.961571,285.432281 
	C79.111458,294.697968 78.194656,303.041901 72.272667,310.932220 
	C68.086617,316.509583 66.908623,323.286499 66.862823,330.326569 
	C66.754288,347.011749 67.344658,363.614746 70.823578,380.005585 
	C71.132957,381.463226 71.266449,382.977356 71.305183,384.469818 
	C71.442162,389.747620 68.472366,392.970093 63.672665,392.851501 
	C58.950409,392.734833 56.045181,389.167267 56.664108,383.973755 
	C57.077129,380.508026 57.777901,377.076569 58.463249,373.202576 
z"/>
<path fill="#FD7623" opacity="1.000000" stroke="none" 
	d="
M97.999527,266.010498 
	C100.587608,267.467102 103.853104,268.351501 105.648880,270.477386 
	C114.367920,280.799133 113.996964,295.859222 105.758499,306.577789 
	C103.796349,309.130646 102.557610,312.895569 102.483521,316.137238 
	C101.996567,337.442657 102.495888,358.716461 106.784225,379.715057 
	C107.049904,381.015991 107.202766,382.344116 107.338142,383.666748 
	C107.875084,388.912750 104.848717,392.604248 99.886436,392.792664 
	C94.795578,392.986023 91.604599,389.664764 92.134155,384.128937 
	C93.162659,373.377319 94.938637,362.678040 95.531219,351.908997 
	C96.197754,339.796051 96.098953,327.626373 95.876625,315.489746 
	C95.823257,312.576416 94.795540,308.793335 92.795876,306.954681 
	C83.415924,298.330078 83.764252,288.401642 88.120758,277.489929 
	C88.768463,277.612610 88.982010,277.913788 89.142860,278.612610 
	C88.729118,284.601471 88.117477,290.192749 88.117622,295.783997 
	C88.117691,298.398651 89.450760,300.834381 92.003761,300.492493 
	C92.003761,293.656067 91.515053,287.293304 92.176758,281.052490 
	C92.612892,276.939148 94.704971,273.001404 96.020233,268.984009 
	C95.984901,268.982971 95.975662,269.053040 96.249466,269.166748 
	C96.701866,269.195770 96.880463,269.111115 97.337051,268.830627 
	C97.743195,267.760040 97.871361,266.885284 97.999527,266.010498 
z"/>
<path fill="#FD7D2E" opacity="1.000000" stroke="none" 
	d="
M145.015182,320.021698 
	C150.757187,319.699402 154.262299,322.827667 156.951324,328.449493 
	C160.224319,319.125824 163.498917,310.619598 161.103210,301.339203 
	C160.639832,301.247894 160.176468,301.156586 159.713104,301.065277 
	C159.116592,304.078247 158.520065,307.091248 157.786102,310.798523 
	C151.129547,300.365326 149.012436,290.060272 152.824341,278.092987 
	C162.851685,287.789886 169.253906,297.995636 163.221832,312.441620 
	C163.622513,312.537598 164.023193,312.633575 164.423874,312.729553 
	C169.504959,309.287262 174.586044,305.844940 179.513596,302.506622 
	C181.177261,313.634460 176.568573,321.432861 163.626587,328.876282 
	C163.744507,327.483643 163.862930,326.089264 163.981354,324.694855 
	C163.528198,324.515259 163.075043,324.335663 162.621887,324.156067 
	C160.639832,327.901978 158.657776,331.647888 155.938080,336.787872 
	C162.656143,335.081573 167.824112,333.768982 173.551163,332.314392 
	C171.433365,344.565765 162.416656,348.592010 152.517578,352.495117 
	C153.341187,350.493713 154.021484,348.840546 154.701797,347.187378 
	C154.449890,346.897217 154.197983,346.607025 153.946075,346.316833 
	C150.636948,348.653931 147.327820,350.990997 144.018692,353.328094 
	C143.778336,353.058716 143.537994,352.789368 143.297653,352.519989 
	C145.529877,348.977417 147.416489,345.147247 150.071365,341.956329 
	C154.607391,336.504486 152.929871,331.458069 149.785416,326.414703 
	C148.480118,324.321198 146.622971,322.571777 145.022842,320.327087 
	C145.028900,319.988281 145.015182,320.021698 145.015182,320.021698 
M155.419159,346.556396 
	C155.761230,346.199249 156.103302,345.842102 156.445358,345.484924 
	C155.947952,345.621704 155.450546,345.758484 155.419159,346.556396 
M164.017593,323.601196 
	C164.211411,323.675232 164.405228,323.749268 164.599030,323.823334 
	C164.542847,323.627350 164.486649,323.431396 164.017593,323.601196 
z"/>
<path fill="#FD7B2A" opacity="1.000000" stroke="none" 
	d="
M33.395134,322.610992 
	C34.099163,324.431091 34.803192,326.251190 35.607224,328.329803 
	C23.459547,322.200043 18.756901,314.300293 20.138084,302.674347 
	C24.826065,305.851746 29.505690,309.023499 34.185314,312.195251 
	C34.603748,312.128235 35.022186,312.061218 35.440620,311.994171 
	C30.474871,297.942688 36.469845,287.656189 45.898674,278.549194 
	C50.667519,287.271301 49.343742,298.086273 41.393997,311.207184 
	C40.719971,306.394745 40.174438,302.499695 39.629532,298.611206 
	C36.362164,304.664398 36.549938,311.450165 40.263927,322.554932 
	C42.001068,319.662354 43.788303,316.686371 45.575539,313.710358 
	C46.107605,313.877380 46.639675,314.044373 47.171741,314.211365 
	C43.570641,328.164307 45.639748,340.846924 54.810730,352.270325 
	C51.196186,349.910583 47.581642,347.550842 43.967102,345.191101 
	C43.767761,345.553558 43.568420,345.916016 43.369080,346.278442 
	C44.316139,347.953613 45.263199,349.628784 46.722885,352.210693 
	C31.252310,345.769379 28.620251,343.282166 25.573097,332.435425 
	C28.686211,333.063629 31.589081,333.484711 34.393436,334.261475 
	C37.215775,335.043182 39.940151,336.178589 43.784420,336.533722 
	C40.797546,331.720001 37.810677,326.906250 34.358295,321.676758 
	C33.430046,321.250671 32.967304,321.240295 32.504562,321.229889 
	C32.801418,321.690247 33.098274,322.150635 33.395134,322.610992 
z"/>
<path fill="#FE9858" opacity="1.000000" stroke="none" 
	d="
M89.195557,278.214996 
	C88.982010,277.913788 88.768463,277.612610 88.311172,277.178314 
	C89.645752,271.938202 91.908623,267.401794 97.771759,265.843567 
	C97.871361,266.885284 97.743195,267.760040 97.222519,268.658051 
	C96.545219,268.805176 96.260437,268.929108 95.975662,269.053040 
	C95.975662,269.053040 95.984901,268.982971 95.684502,269.067139 
	C93.321251,272.172546 91.258400,275.193756 89.195557,278.214996 
z"/>
<path fill="#FD7D2E" opacity="1.000000" stroke="none" 
	d="
M145.047058,319.982422 
	C144.700775,319.716339 144.336319,319.456177 143.971863,319.195984 
	C144.201965,319.410248 144.432053,319.624542 144.838654,319.930237 
	C145.015182,320.021698 145.028900,319.988281 145.047058,319.982422 
z"/>
<path fill="#FFFCFA" opacity="1.000000" stroke="none" 
	d="
M463.743591,316.039246 
	C466.018219,306.981140 471.169342,304.098877 477.197418,308.492584 
	C478.775452,309.642761 480.127869,312.146545 480.225494,314.096680 
	C480.582733,321.232697 480.017395,328.420746 480.493317,335.542847 
	C480.796021,340.073059 477.864471,342.419006 472.159210,343.603149 
	C468.009918,344.464294 464.918884,341.876953 464.501923,338.177887 
	C463.692047,330.993591 463.870483,323.697906 463.743591,316.039246 
z"/>
<path fill="#FFF0E7" opacity="1.000000" stroke="none" 
	d="
M89.142860,278.612610 
	C91.258400,275.193756 93.321251,272.172546 95.719833,269.068176 
	C94.704971,273.001404 92.612892,276.939148 92.176758,281.052490 
	C91.515053,287.293304 92.003761,293.656067 92.003761,300.492493 
	C89.450760,300.834381 88.117691,298.398651 88.117622,295.783997 
	C88.117477,290.192749 88.729118,284.601471 89.142860,278.612610 
z"/>
<path fill="#FFF0E7" opacity="1.000000" stroke="none" 
	d="
M96.249466,269.166748 
	C96.260437,268.929108 96.545219,268.805176 96.944534,268.853851 
	C96.880463,269.111115 96.701866,269.195770 96.249466,269.166748 
z"/>
<path fill="#FFFFFF" opacity="1.000000" stroke="none" 
	d="
M155.186157,346.225830 
	C155.450546,345.758484 155.947952,345.621704 156.445374,345.484924 
	C156.103302,345.842102 155.761230,346.199249 155.186157,346.225830 
z"/>
<path fill="#FFFFFF" opacity="1.000000" stroke="none" 
	d="
M164.224030,323.418304 
	C164.486649,323.431396 164.542847,323.627350 164.599030,323.823303 
	C164.405228,323.749268 164.211411,323.675232 164.224030,323.418304 
z"/>
<path fill="#FFFFFF" opacity="1.000000" stroke="none" 
	d="
M33.610115,322.401825 
	C33.098274,322.150635 32.801418,321.690247 32.504562,321.229889 
	C32.967304,321.240295 33.430046,321.250671 34.060410,321.504639 
	C34.093719,321.896393 33.959404,322.044525 33.610115,322.401825 
z"/>
</svg>