<svg version="1.1" id="Layer_1" xmlns="http://www.w3.org/2000/svg" xmlns:xlink="http://www.w3.org/1999/xlink" x="0px" y="0px"
	 width="100%" viewBox="0 0 1460 394" enable-background="new 0 0 1460 394" xml:space="preserve">
<path fill="#FFFFFE" opacity="1.000000" stroke="none" 
	d="
M1054.000000,395.000000 
	C702.666687,395.000000 351.833374,395.000000 1.000047,395.000000 
	C1.000031,263.666687 1.000031,132.333389 1.000016,1.000065 
	C487.666626,1.000043 974.333252,1.000043 1461.000000,1.000022 
	C1461.000000,132.333267 1461.000000,263.666534 1461.000000,394.999908 
	C1325.500000,395.000000 1190.000000,395.000000 1054.000000,395.000000 
M117.124329,256.672180 
	C131.816650,260.871094 141.664932,272.406525 153.713577,280.939362 
	C153.573288,279.096771 153.006256,277.659454 152.211578,276.361511 
	C145.168808,264.858917 138.155502,253.337021 130.968307,241.924881 
	C129.027664,238.843414 129.045090,236.093658 129.802689,232.556519 
	C130.967209,227.119415 131.639450,221.370209 131.227936,215.849792 
	C130.581085,207.172104 130.444107,198.874680 135.908035,191.480011 
	C136.104813,191.213699 135.868851,190.627655 135.752670,189.147171 
	C133.430664,190.784790 131.553436,191.917099 129.895935,193.310760 
	C122.620453,199.428177 120.466629,207.815857 120.233299,218.370300 
	C110.270866,189.473892 109.537430,166.675171 117.298264,155.397690 
	C118.433708,164.932587 119.631439,174.990540 120.829170,185.048492 
	C137.569519,162.038330 141.603088,131.770691 131.792389,111.018089 
	C126.438545,117.468903 120.808937,123.406036 116.153328,130.027969 
	C104.496262,146.608490 99.680916,164.414520 107.981720,184.166519 
	C108.936478,186.438400 108.861900,189.142853 109.346115,192.153778 
	C102.549004,187.340057 96.489746,183.084747 90.469391,178.775116 
	C84.519554,174.515976 78.609024,170.201904 72.964851,166.117188 
	C69.732582,190.267471 79.824677,210.455154 109.530472,224.808517 
	C105.319199,217.218994 101.107918,209.629471 97.082237,202.374420 
	C104.582939,202.412827 127.158035,236.302612 126.411713,247.917267 
	C114.721336,237.310059 99.629776,236.967957 85.033394,233.213455 
	C90.567139,250.228973 98.922134,263.950592 116.063927,270.528748 
	C122.087105,272.840149 127.901764,275.694916 134.427048,278.573029 
	C130.686554,268.861694 122.765678,263.440155 115.813530,257.161255 
	C116.009171,256.956146 116.204819,256.751068 117.124329,256.672180 
M537.831360,89.711525 
	C526.240112,88.655464 514.747681,89.244827 503.352905,91.056976 
	C503.352905,158.720474 503.352905,225.658722 503.352905,292.939148 
	C519.184937,295.522339 534.787903,295.618073 550.541992,292.856262 
	C550.541992,264.606201 550.541992,236.853607 550.541992,208.890442 
	C571.752014,208.890442 592.659241,208.890442 614.026184,208.890442 
	C614.026184,237.041138 614.026184,264.945129 614.026184,292.953339 
	C629.977539,295.469543 645.442810,295.603516 660.859802,292.912231 
	C660.859802,225.285095 660.859802,158.211899 660.859802,90.860603 
	C645.075500,88.747871 629.616638,88.523300 613.777710,91.081726 
	C613.777710,117.364258 613.777710,143.097946 613.777710,168.763336 
	C592.455200,168.763336 571.549561,168.763336 550.380432,168.763336 
	C550.380432,142.714127 550.380432,116.986290 550.380432,90.753799 
	C546.328491,90.404510 542.541992,90.078102 537.831360,89.711525 
M1135.987061,334.412476 
	C1139.348022,325.248322 1144.155640,316.325806 1145.735840,306.864227 
	C1148.191895,292.159332 1149.134277,277.104065 1149.492554,262.167908 
	C1150.119629,236.021240 1149.659546,209.849838 1150.066528,183.695160 
	C1150.130493,179.591949 1151.210449,174.427429 1153.834229,171.668549 
	C1159.066284,166.167068 1157.014160,161.563812 1154.165649,156.571808 
	C1152.275635,153.259445 1150.042114,150.136627 1147.866455,146.995300 
	C1145.414673,143.455261 1142.111694,142.596313 1137.866821,143.369797 
	C1129.440308,144.905197 1122.112183,148.461044 1116.285767,154.191605 
	C1115.590820,154.102432 1115.397217,154.133591 1115.278687,154.053589 
	C1114.316284,153.404968 1113.369385,152.733292 1112.415039,152.072693 
	C1099.069336,142.835144 1084.156250,139.293137 1068.286255,141.594162 
	C1048.248657,144.499466 1035.150269,157.061462 1026.784180,174.736160 
	C1014.728210,200.205765 1015.572205,226.739288 1021.795471,253.386795 
	C1024.925903,266.790924 1031.115845,278.708832 1042.439087,287.249054 
	C1056.911377,298.164185 1081.326782,298.751892 1097.804810,288.727386 
	C1099.709351,287.568726 1101.659546,286.485168 1104.268433,284.972687 
	C1104.268433,289.633881 1104.434326,293.271790 1104.240356,296.890442 
	C1103.276611,314.872253 1093.900757,323.797760 1075.902344,323.971039 
	C1063.093994,324.094299 1050.677856,321.918030 1038.900391,316.883911 
	C1035.109863,315.263702 1032.702026,315.959503 1031.462158,319.574371 
	C1028.569580,328.008148 1025.914185,336.525116 1023.279785,345.044586 
	C1022.411682,347.852203 1023.959290,349.076111 1026.598022,349.988464 
	C1047.366577,357.169281 1068.723022,359.632629 1090.546265,357.894653 
	C1108.618164,356.455444 1124.866455,351.100006 1135.987061,334.412476 
M991.143127,248.487930 
	C991.141968,231.657578 991.346863,214.823502 991.043457,197.998611 
	C990.912170,190.714920 990.520752,183.266754 988.880127,176.211258 
	C984.001892,155.232040 971.045715,142.377167 948.036072,142.864349 
	C936.088440,143.117310 925.707214,147.600296 916.149292,154.391891 
	C913.377136,156.361664 910.663757,158.414215 907.631226,160.643631 
	C902.641357,147.278458 892.899414,142.544571 879.897949,143.109589 
	C877.070496,143.232452 874.233032,143.123993 871.400208,143.127213 
	C864.132629,143.135437 863.990601,143.265182 863.990051,150.329697 
	C863.986328,196.155106 863.987244,241.980530 863.986572,287.805939 
	C863.986572,289.442078 863.986572,291.078247 863.986572,292.940002 
	C879.582886,295.212555 894.707092,295.357941 910.083923,292.879913 
	C910.083923,290.553467 910.084045,288.736511 910.083984,286.919556 
	C910.083496,257.424652 910.047241,227.929611 910.164368,198.435165 
	C910.171997,196.506882 910.792114,193.987640 912.089600,192.762024 
	C917.300781,187.839767 923.646667,184.948685 930.840393,184.265472 
	C937.744629,183.609772 942.511658,187.008972 943.777588,193.843277 
	C944.530457,197.908218 944.776672,202.113297 944.804993,206.258408 
	C944.953857,228.086517 944.787537,249.917938 945.083252,271.743439 
	C945.255005,284.420319 951.262756,292.397949 961.990540,294.480286 
	C975.275024,297.058990 987.370544,294.222595 998.158142,285.295105 
	C991.381653,274.151947 991.116516,261.844116 991.143127,248.487930 
M782.914917,278.244263 
	C784.173950,277.248077 785.433044,276.251923 786.764832,275.198212 
	C789.244568,278.296478 791.253052,281.403351 793.853638,283.891327 
	C796.588806,286.508148 799.576904,289.314575 802.996704,290.686310 
	C821.786743,298.223206 823.681213,297.815552 832.502869,281.184296 
	C833.665039,278.993439 834.580383,276.641724 835.325439,274.274872 
	C835.607605,273.378357 835.468262,271.831848 834.870789,271.255096 
	C828.338623,264.948761 827.942017,256.820892 827.936401,248.579971 
	C827.914246,216.093384 827.926147,183.606766 827.925354,151.120163 
	C827.925293,149.336334 827.925354,147.552521 827.925354,145.622803 
	C814.044495,143.025497 800.638916,143.441467 787.187073,144.364914 
	C782.661133,144.675613 781.671143,146.702011 781.698303,150.980606 
	C781.885803,180.467255 781.817322,209.955704 781.745117,239.443375 
	C781.740479,241.328018 781.644165,243.799866 780.522034,244.997208 
	C774.150879,251.795609 766.404785,255.435593 756.811768,253.844131 
	C751.786072,253.010345 748.665161,250.174973 748.057983,245.043976 
	C747.570068,240.921661 747.115234,236.766495 747.090088,232.623199 
	C746.958374,210.966522 747.240845,189.303406 746.798218,167.654419 
	C746.615601,158.721542 744.961426,149.427505 735.181519,145.671463 
	C721.564087,140.441605 708.349609,142.139435 696.313171,150.579376 
	C695.261536,151.316818 694.725647,153.836090 695.037842,155.294937 
	C696.554016,162.380157 699.683350,169.337051 699.962891,176.429199 
	C700.789001,197.387314 700.350952,218.391922 700.809570,239.369553 
	C700.983215,247.311600 701.317871,255.460587 703.203003,263.115356 
	C708.879150,286.164948 724.458923,297.962494 749.237183,295.135132 
	C762.099976,293.667450 772.488647,286.577484 782.914917,278.244263 
M1350.576782,239.500061 
	C1350.576050,228.001144 1350.551514,216.502121 1350.601807,205.003433 
	C1350.609009,203.368423 1350.614990,201.576477 1351.243530,200.126953 
	C1354.978638,191.514328 1367.621216,184.784592 1376.994263,186.270813 
	C1380.113159,186.765366 1383.211792,187.691315 1386.332275,187.750214 
	C1388.054688,187.782730 1390.715454,186.909348 1391.397705,185.620758 
	C1397.486572,174.122787 1400.450928,161.695969 1401.026367,148.747116 
	C1401.080322,147.532318 1399.137451,145.330261 1397.859253,145.110199 
	C1392.300171,144.153030 1386.641235,143.238983 1381.023560,143.268494 
	C1368.571289,143.333878 1358.505493,148.617859 1351.208374,158.774002 
	C1348.913086,161.968628 1347.061401,165.481964 1344.714600,169.328247 
	C1343.605225,167.326752 1342.759888,165.774643 1341.889771,164.236526 
	C1337.310669,156.142288 1331.015625,149.640625 1322.194214,146.627747 
	C1305.930664,141.073059 1306.279175,140.575012 1297.596069,155.666412 
	C1297.264526,156.242416 1297.035156,156.877502 1296.700439,157.451385 
	C1293.800049,162.421982 1292.116455,166.939163 1297.622070,171.784210 
	C1300.017578,173.892197 1301.404297,177.778976 1302.060181,181.093170 
	C1303.246826,187.089050 1304.075317,193.257812 1304.117310,199.360855 
	C1304.319458,228.689835 1304.208740,258.020966 1304.208984,287.351349 
	C1304.208984,289.134491 1304.208984,290.917664 1304.208984,292.868317 
	C1319.946655,295.461060 1335.093872,295.626801 1350.576294,292.824097 
	C1350.576294,275.130371 1350.576294,257.815247 1350.576782,239.500061 
M1228.992554,293.662048 
	C1232.405762,293.570557 1233.127197,291.773865 1233.109375,288.518768 
	C1232.963989,261.874207 1233.368652,235.221420 1232.818481,208.587387 
	C1232.650146,200.435822 1236.268799,195.507721 1241.961914,191.053986 
	C1249.855347,184.878860 1258.732056,185.450974 1267.651611,187.701904 
	C1271.485718,188.669510 1273.385498,187.598618 1274.964844,184.127670 
	C1279.987549,173.088181 1282.520386,161.464172 1283.859863,149.493759 
	C1284.187378,146.566681 1283.249634,145.127487 1280.250122,144.895386 
	C1273.960327,144.408691 1267.647095,143.095886 1261.403198,143.390884 
	C1250.222046,143.919113 1240.918701,148.830338 1234.276001,158.062622 
	C1231.794800,161.511017 1229.739990,165.266220 1227.227295,169.305176 
	C1226.065063,167.240067 1225.109009,165.527069 1224.139893,163.821487 
	C1219.718994,156.041580 1213.617188,149.805969 1205.192749,146.831451 
	C1188.636719,140.985809 1188.749268,140.610809 1180.123535,155.631760 
	C1179.544678,156.639832 1179.084595,157.715439 1178.544189,158.746460 
	C1176.182983,163.251358 1175.159546,167.140411 1179.796997,171.472733 
	C1182.487549,173.986404 1184.054932,178.307220 1184.867676,182.085815 
	C1186.116577,187.893005 1186.783081,193.930161 1186.821289,199.875366 
	C1187.008545,229.017532 1186.906250,258.161560 1186.906250,287.304932 
	C1186.906250,289.100067 1186.906250,290.895172 1186.906250,292.854797 
	C1200.918335,295.412415 1214.492310,295.251343 1228.992554,293.662048 
M302.788391,194.706512 
	C306.855072,197.596451 310.814789,200.653580 315.012268,203.339111 
	C322.193756,207.933792 326.049622,214.393478 326.038177,222.854980 
	C326.017426,238.183960 325.988586,253.521378 325.482727,268.839417 
	C324.579742,296.184143 320.911743,323.220001 315.917511,350.108917 
	C314.091522,359.940155 320.779175,367.898438 330.709442,368.728088 
	C343.243561,369.775299 351.012634,360.691620 348.429688,347.308533 
	C342.609314,317.150787 338.764130,286.792999 338.770721,256.046967 
	C338.783234,197.718216 338.991791,139.389526 339.030457,81.060730 
	C339.031769,79.093315 338.078186,77.125267 337.569702,75.157509 
	C335.540894,75.705894 332.978577,75.655151 331.574738,76.905319 
	C325.146210,82.630013 318.266479,88.105095 312.971161,94.795593 
	C298.696472,112.831146 291.486969,133.842422 290.620422,156.730316 
	C290.104401,170.360825 291.712677,183.810028 302.788391,194.706512 
M237.658142,329.018280 
	C236.601593,336.261841 235.351059,343.483673 234.537231,350.754425 
	C233.500259,360.018738 240.580948,368.131226 249.884140,368.737823 
	C262.791565,369.579437 270.721222,360.111786 268.656982,346.801361 
	C265.548218,326.755554 261.283875,306.749939 260.106018,286.575684 
	C258.254303,254.859436 258.349945,223.018127 258.192871,191.226944 
	C258.170197,186.632034 260.833984,181.752090 263.161987,177.500946 
	C265.120483,173.924500 268.370117,171.045624 271.100220,167.903168 
	C276.402008,161.800629 279.786011,154.777054 280.000031,146.686417 
	C280.157379,140.737442 279.878418,134.680664 278.912750,128.817047 
	C276.410919,113.626038 271.513245,99.437408 259.683960,88.638260 
	C252.956924,82.497040 245.955597,82.322586 239.213852,88.420731 
	C231.751846,95.170395 226.905655,103.611099 223.810455,113.129089 
	C216.290939,136.252167 215.281891,157.946716 236.131332,175.618347 
	C242.524612,181.037186 243.830933,188.920227 243.787552,197.037720 
	C243.553528,240.821121 244.443390,284.653229 237.658142,329.018280 
M197.525803,172.980972 
	C202.681198,164.009628 204.841553,154.427307 203.081848,144.157349 
	C200.581390,129.564392 197.922729,114.998611 195.363464,100.415634 
	C194.230026,93.957176 193.174454,87.485046 192.083542,81.019119 
	C191.574738,81.048454 191.065918,81.077789 190.557098,81.107124 
	C190.460541,82.801323 190.290314,84.495018 190.278717,86.189796 
	C190.149765,105.019981 190.053879,123.850403 189.919525,142.680542 
	C189.907730,144.334290 190.110840,146.192139 189.437958,147.578415 
	C188.833969,148.822693 187.131439,150.324921 185.966934,150.281464 
	C184.822601,150.238785 183.092972,148.559052 182.775909,147.305420 
	C182.133118,144.763824 182.189926,142.027512 182.100266,139.366684 
	C181.505554,121.714729 180.960770,104.061081 180.360306,86.409332 
	C180.298737,84.598999 179.976974,82.797516 179.775940,80.991928 
	C179.216370,81.006981 178.656799,81.022026 178.097229,81.037071 
	C177.922668,82.684120 177.615021,84.329460 177.593903,85.978470 
	C177.352768,104.807426 177.158142,123.636986 176.940674,142.466263 
	C176.923386,143.962875 177.224091,145.633270 176.661591,146.906952 
	C176.066589,148.254150 174.479477,150.242371 173.570038,150.120956 
	C172.173386,149.934433 170.304565,148.406326 169.861267,147.047760 
	C169.108551,144.740906 169.214005,142.126053 169.125992,139.634750 
	C168.484848,121.484756 167.899734,103.332771 167.244949,85.183281 
	C167.194382,83.781540 166.746765,82.394127 166.483704,81.000053 
	C165.140991,82.443420 164.927856,83.683823 164.906448,84.927521 
	C164.570847,104.420990 164.274323,123.915131 163.927719,143.408401 
	C163.876526,146.287430 164.737274,150.251328 160.368164,150.333878 
	C156.141159,150.413757 156.606949,146.499344 156.358047,143.574005 
	C156.245117,142.246872 156.194641,140.912827 156.160583,139.580780 
	C155.709061,121.924423 155.273331,104.267654 154.807678,86.611671 
	C154.762131,84.884735 154.544952,83.162323 154.407455,81.437813 
	C152.979034,82.552177 152.371719,83.696671 152.146912,84.911934 
	C149.392029,99.803268 146.577057,114.685081 144.020966,129.611038 
	C142.335968,139.450302 139.793381,149.581314 143.118195,159.282181 
	C146.217392,168.324844 150.624878,177.005890 155.228333,185.424011 
	C160.840607,195.686951 164.667679,206.307205 165.222458,218.037582 
	C167.294296,261.844757 163.394547,305.208618 155.506592,348.268372 
	C154.238327,355.191803 155.152405,361.457245 161.254517,365.604462 
	C167.548126,369.881866 174.421738,370.125458 181.033997,366.079498 
	C187.462265,362.146118 189.713409,356.151764 188.293091,348.900635 
	C180.353439,308.365967 176.704880,267.459106 178.258102,226.182846 
	C178.585678,217.477600 179.671432,208.374557 182.689209,200.308319 
	C186.200806,190.922180 192.221207,182.474655 197.525803,172.980972 
M427.883057,192.293976 
	C431.217712,181.960434 432.132538,171.518570 430.154297,164.190567 
	C421.938904,178.396683 404.323303,179.893311 394.265869,192.212280 
	C398.270294,177.382950 401.562225,163.010605 396.409760,148.109833 
	C391.386261,133.581879 381.460144,122.701836 371.250763,111.442932 
	C361.598022,134.934311 366.498779,167.661804 382.588959,185.345337 
	C383.696655,174.649887 384.723816,164.732269 385.733978,154.978577 
	C396.581360,172.674225 390.017242,201.037552 378.703339,226.764648 
	C376.489777,208.957138 361.957855,207.365128 349.623932,202.892670 
	C351.400940,205.398483 353.957428,207.163956 355.676453,209.536255 
	C360.232574,215.823685 365.105469,222.030823 368.578888,228.912643 
	C372.245178,236.176575 373.012573,243.712906 367.449341,251.322296 
	C360.981140,260.169403 355.634460,269.836639 349.806885,279.151581 
	C349.285522,279.984985 348.807159,280.845276 348.308838,281.693115 
	C348.657257,281.992859 349.005676,282.292572 349.354065,282.592316 
	C351.677338,280.592529 353.868408,278.408905 356.347809,276.626343 
	C364.967377,270.429260 373.643188,264.307129 382.414551,258.328033 
	C383.759949,257.410950 385.721222,257.397339 387.432281,256.956970 
	C380.894592,263.825409 374.678253,270.356201 368.461945,276.886993 
	C368.953400,277.563202 369.444885,278.239410 369.936371,278.915619 
	C380.292877,272.851959 392.302734,270.063232 401.596466,261.970154 
	C410.075989,254.586121 414.765656,244.880997 418.177582,233.353516 
	C403.566315,236.903198 389.250824,238.012619 377.104340,246.689438 
	C383.874207,229.865768 390.358093,213.255051 406.347382,201.197113 
	C401.723724,209.929749 397.701447,217.526550 393.679199,225.123367 
	C408.381439,217.401917 422.324890,209.539307 427.883057,192.293976 
z"/>
<path fill="#FC7622" opacity="1.000000" stroke="none" 
	d="
M538.293457,89.731613 
	C542.541992,90.078102 546.328491,90.404510 550.380432,90.753799 
	C550.380432,116.986290 550.380432,142.714127 550.380432,168.763336 
	C571.549561,168.763336 592.455200,168.763336 613.777710,168.763336 
	C613.777710,143.097946 613.777710,117.364258 613.777710,91.081726 
	C629.616638,88.523300 645.075500,88.747871 660.859802,90.860603 
	C660.859802,158.211899 660.859802,225.285095 660.859802,292.912231 
	C645.442810,295.603516 629.977539,295.469543 614.026184,292.953339 
	C614.026184,264.945129 614.026184,237.041138 614.026184,208.890442 
	C592.659241,208.890442 571.752014,208.890442 550.541992,208.890442 
	C550.541992,236.853607 550.541992,264.606201 550.541992,292.856262 
	C534.787903,295.618073 519.184937,295.522339 503.352905,292.939148 
	C503.352905,225.658722 503.352905,158.720474 503.352905,91.056976 
	C514.747681,89.244827 526.240112,88.655464 538.293457,89.731613 
z"/>
<path fill="#FC7927" opacity="1.000000" stroke="none" 
	d="
M1135.772705,334.703949 
	C1124.866455,351.100006 1108.618164,356.455444 1090.546265,357.894653 
	C1068.723022,359.632629 1047.366577,357.169281 1026.598022,349.988464 
	C1023.959290,349.076111 1022.411682,347.852203 1023.279785,345.044586 
	C1025.914185,336.525116 1028.569580,328.008148 1031.462158,319.574371 
	C1032.702026,315.959503 1035.109863,315.263702 1038.900391,316.883911 
	C1050.677856,321.918030 1063.093994,324.094299 1075.902344,323.971039 
	C1093.900757,323.797760 1103.276611,314.872253 1104.240356,296.890442 
	C1104.434326,293.271790 1104.268433,289.633881 1104.268433,284.972687 
	C1101.659546,286.485168 1099.709351,287.568726 1097.804810,288.727386 
	C1081.326782,298.751892 1056.911377,298.164185 1042.439087,287.249054 
	C1031.115845,278.708832 1024.925903,266.790924 1021.795471,253.386795 
	C1015.572205,226.739288 1014.728210,200.205765 1026.784180,174.736160 
	C1035.150269,157.061462 1048.248657,144.499466 1068.286255,141.594162 
	C1084.156250,139.293137 1099.069336,142.835144 1112.415039,152.072693 
	C1113.369385,152.733292 1114.316284,153.404968 1115.278687,154.053589 
	C1115.397217,154.133591 1115.590820,154.102432 1116.285767,154.191605 
	C1122.112183,148.461044 1129.440308,144.905197 1137.866821,143.369797 
	C1142.111694,142.596313 1145.414673,143.455261 1147.866455,146.995300 
	C1150.042114,150.136627 1152.275635,153.259445 1154.165649,156.571808 
	C1157.014160,161.563812 1159.066284,166.167068 1153.834229,171.668549 
	C1151.210449,174.427429 1150.130493,179.591949 1150.066528,183.695160 
	C1149.659546,209.849838 1150.119629,236.021240 1149.492554,262.167908 
	C1149.134277,277.104065 1148.191895,292.159332 1145.735840,306.864227 
	C1144.155640,316.325806 1139.348022,325.248322 1135.772705,334.703949 
M1104.671143,189.869843 
	C1104.383667,188.113693 1104.727051,185.719299 1103.703491,184.707718 
	C1098.162109,179.230820 1091.828613,174.792007 1083.545532,175.504913 
	C1075.225830,176.220993 1071.381836,182.254013 1068.927490,189.351044 
	C1064.085693,203.350769 1064.424927,217.841629 1065.588257,232.281174 
	C1066.035645,237.833359 1067.372314,243.482208 1069.323730,248.705963 
	C1072.337402,256.773529 1078.338013,260.115723 1086.719849,258.109406 
	C1091.725220,256.911255 1096.334351,253.970642 1101.044556,251.656555 
	C1104.079224,250.165680 1104.765137,247.538147 1104.736694,244.203796 
	C1104.584961,226.400879 1104.667725,208.595963 1104.671143,189.869843 
z"/>
<path fill="#FC7825" opacity="1.000000" stroke="none" 
	d="
M991.143188,248.984924 
	C991.116516,261.844116 991.381653,274.151947 998.158142,285.295105 
	C987.370544,294.222595 975.275024,297.058990 961.990540,294.480286 
	C951.262756,292.397949 945.255005,284.420319 945.083252,271.743439 
	C944.787537,249.917938 944.953857,228.086517 944.804993,206.258408 
	C944.776672,202.113297 944.530457,197.908218 943.777588,193.843277 
	C942.511658,187.008972 937.744629,183.609772 930.840393,184.265472 
	C923.646667,184.948685 917.300781,187.839767 912.089600,192.762024 
	C910.792114,193.987640 910.171997,196.506882 910.164368,198.435165 
	C910.047241,227.929611 910.083496,257.424652 910.083984,286.919556 
	C910.084045,288.736511 910.083923,290.553467 910.083923,292.879913 
	C894.707092,295.357941 879.582886,295.212555 863.986572,292.940002 
	C863.986572,291.078247 863.986572,289.442078 863.986572,287.805939 
	C863.987244,241.980530 863.986328,196.155106 863.990051,150.329697 
	C863.990601,143.265182 864.132629,143.135437 871.400208,143.127213 
	C874.233032,143.123993 877.070496,143.232452 879.897949,143.109589 
	C892.899414,142.544571 902.641357,147.278458 907.631226,160.643631 
	C910.663757,158.414215 913.377136,156.361664 916.149292,154.391891 
	C925.707214,147.600296 936.088440,143.117310 948.036072,142.864349 
	C971.045715,142.377167 984.001892,155.232040 988.880127,176.211258 
	C990.520752,183.266754 990.912170,190.714920 991.043457,197.998611 
	C991.346863,214.823502 991.141968,231.657578 991.143188,248.984924 
z"/>
<path fill="#FC7623" opacity="1.000000" stroke="none" 
	d="
M782.632568,278.485107 
	C772.488647,286.577484 762.099976,293.667450 749.237183,295.135132 
	C724.458923,297.962494 708.879150,286.164948 703.203003,263.115356 
	C701.317871,255.460587 700.983215,247.311600 700.809570,239.369553 
	C700.350952,218.391922 700.789001,197.387314 699.962891,176.429199 
	C699.683350,169.337051 696.554016,162.380157 695.037842,155.294937 
	C694.725647,153.836090 695.261536,151.316818 696.313171,150.579376 
	C708.349609,142.139435 721.564087,140.441605 735.181519,145.671463 
	C744.961426,149.427505 746.615601,158.721542 746.798218,167.654419 
	C747.240845,189.303406 746.958374,210.966522 747.090088,232.623199 
	C747.115234,236.766495 747.570068,240.921661 748.057983,245.043976 
	C748.665161,250.174973 751.786072,253.010345 756.811768,253.844131 
	C766.404785,255.435593 774.150879,251.795609 780.522034,244.997208 
	C781.644165,243.799866 781.740479,241.328018 781.745117,239.443375 
	C781.817322,209.955704 781.885803,180.467255 781.698303,150.980606 
	C781.671143,146.702011 782.661133,144.675613 787.187073,144.364914 
	C800.638916,143.441467 814.044495,143.025497 827.925354,145.622803 
	C827.925354,147.552521 827.925293,149.336334 827.925354,151.120163 
	C827.926147,183.606766 827.914246,216.093384 827.936401,248.579971 
	C827.942017,256.820892 828.338623,264.948761 834.870789,271.255096 
	C835.468262,271.831848 835.607605,273.378357 835.325439,274.274872 
	C834.580383,276.641724 833.665039,278.993439 832.502869,281.184296 
	C823.681213,297.815552 821.786743,298.223206 802.996704,290.686310 
	C799.576904,289.314575 796.588806,286.508148 793.853638,283.891327 
	C791.253052,281.403351 789.244568,278.296478 786.764832,275.198212 
	C785.433044,276.251923 784.173950,277.248077 782.632568,278.485107 
z"/>
<path fill="#FC7B2B" opacity="1.000000" stroke="none" 
	d="
M1350.576538,240.000076 
	C1350.576294,257.815247 1350.576294,275.130371 1350.576294,292.824097 
	C1335.093872,295.626801 1319.946655,295.461060 1304.208984,292.868317 
	C1304.208984,290.917664 1304.208984,289.134491 1304.208984,287.351349 
	C1304.208740,258.020966 1304.319458,228.689835 1304.117310,199.360855 
	C1304.075317,193.257812 1303.246826,187.089050 1302.060181,181.093170 
	C1301.404297,177.778976 1300.017578,173.892197 1297.622070,171.784210 
	C1292.116455,166.939163 1293.800049,162.421982 1296.700439,157.451385 
	C1297.035156,156.877502 1297.264526,156.242416 1297.596069,155.666412 
	C1306.279175,140.575012 1305.930664,141.073059 1322.194214,146.627747 
	C1331.015625,149.640625 1337.310669,156.142288 1341.889771,164.236526 
	C1342.759888,165.774643 1343.605225,167.326752 1344.714600,169.328247 
	C1347.061401,165.481964 1348.913086,161.968628 1351.208374,158.774002 
	C1358.505493,148.617859 1368.571289,143.333878 1381.023560,143.268494 
	C1386.641235,143.238983 1392.300171,144.153030 1397.859253,145.110199 
	C1399.137451,145.330261 1401.080322,147.532318 1401.026367,148.747116 
	C1400.450928,161.695969 1397.486572,174.122787 1391.397705,185.620758 
	C1390.715454,186.909348 1388.054688,187.782730 1386.332275,187.750214 
	C1383.211792,187.691315 1380.113159,186.765366 1376.994263,186.270813 
	C1367.621216,184.784592 1354.978638,191.514328 1351.243530,200.126953 
	C1350.614990,201.576477 1350.609009,203.368423 1350.601807,205.003433 
	C1350.551514,216.502121 1350.576050,228.001144 1350.576538,240.000076 
z"/>
<path fill="#FC7A29" opacity="1.000000" stroke="none" 
	d="
M1228.546997,293.730469 
	C1214.492310,295.251343 1200.918335,295.412415 1186.906250,292.854797 
	C1186.906250,290.895172 1186.906250,289.100067 1186.906250,287.304932 
	C1186.906250,258.161560 1187.008545,229.017532 1186.821289,199.875366 
	C1186.783081,193.930161 1186.116577,187.893005 1184.867676,182.085815 
	C1184.054932,178.307220 1182.487549,173.986404 1179.796997,171.472733 
	C1175.159546,167.140411 1176.182983,163.251358 1178.544189,158.746460 
	C1179.084595,157.715439 1179.544678,156.639832 1180.123535,155.631760 
	C1188.749268,140.610809 1188.636719,140.985809 1205.192749,146.831451 
	C1213.617188,149.805969 1219.718994,156.041580 1224.139893,163.821487 
	C1225.109009,165.527069 1226.065063,167.240067 1227.227295,169.305176 
	C1229.739990,165.266220 1231.794800,161.511017 1234.276001,158.062622 
	C1240.918701,148.830338 1250.222046,143.919113 1261.403198,143.390884 
	C1267.647095,143.095886 1273.960327,144.408691 1280.250122,144.895386 
	C1283.249634,145.127487 1284.187378,146.566681 1283.859863,149.493759 
	C1282.520386,161.464172 1279.987549,173.088181 1274.964844,184.127670 
	C1273.385498,187.598618 1271.485718,188.669510 1267.651611,187.701904 
	C1258.732056,185.450974 1249.855347,184.878860 1241.961914,191.053986 
	C1236.268799,195.507721 1232.650146,200.435822 1232.818481,208.587387 
	C1233.368652,235.221420 1232.963989,261.874207 1233.109375,288.518768 
	C1233.127197,291.773865 1232.405762,293.570557 1228.546997,293.730469 
z"/>
<path fill="#FD741F" opacity="1.000000" stroke="none" 
	d="
M302.523621,194.470474 
	C291.712677,183.810028 290.104401,170.360825 290.620422,156.730316 
	C291.486969,133.842422 298.696472,112.831146 312.971161,94.795593 
	C318.266479,88.105095 325.146210,82.630013 331.574738,76.905319 
	C332.978577,75.655151 335.540894,75.705894 337.569702,75.157509 
	C338.078186,77.125267 339.031769,79.093315 339.030457,81.060730 
	C338.991791,139.389526 338.783234,197.718216 338.770721,256.046967 
	C338.764130,286.792999 342.609314,317.150787 348.429688,347.308533 
	C351.012634,360.691620 343.243561,369.775299 330.709442,368.728088 
	C320.779175,367.898438 314.091522,359.940155 315.917511,350.108917 
	C320.911743,323.220001 324.579742,296.184143 325.482727,268.839417 
	C325.988586,253.521378 326.017426,238.183960 326.038177,222.854980 
	C326.049622,214.393478 322.193756,207.933792 315.012268,203.339111 
	C310.814789,200.653580 306.855072,197.596451 302.523621,194.470474 
z"/>
<path fill="#FD741F" opacity="1.000000" stroke="none" 
	d="
M237.731720,328.580994 
	C244.443390,284.653229 243.553528,240.821121 243.787552,197.037720 
	C243.830933,188.920227 242.524612,181.037186 236.131332,175.618347 
	C215.281891,157.946716 216.290939,136.252167 223.810455,113.129089 
	C226.905655,103.611099 231.751846,95.170395 239.213852,88.420731 
	C245.955597,82.322586 252.956924,82.497040 259.683960,88.638260 
	C271.513245,99.437408 276.410919,113.626038 278.912750,128.817047 
	C279.878418,134.680664 280.157379,140.737442 280.000031,146.686417 
	C279.786011,154.777054 276.402008,161.800629 271.100220,167.903168 
	C268.370117,171.045624 265.120483,173.924500 263.161987,177.500946 
	C260.833984,181.752090 258.170197,186.632034 258.192871,191.226944 
	C258.349945,223.018127 258.254303,254.859436 260.106018,286.575684 
	C261.283875,306.749939 265.548218,326.755554 268.656982,346.801361 
	C270.721222,360.111786 262.791565,369.579437 249.884140,368.737823 
	C240.580948,368.131226 233.500259,360.018738 234.537231,350.754425 
	C235.351059,343.483673 236.601593,336.261841 237.731720,328.580994 
M242.312546,95.941879 
	C243.974594,93.521103 245.636627,91.100319 247.298676,88.679543 
	C246.907440,88.369659 246.516205,88.059776 246.124954,87.749893 
	C243.355164,90.322777 240.246796,92.618950 237.876953,95.518700 
	C229.687393,105.539551 226.020721,117.475998 225.125458,130.104523 
	C224.578491,137.819778 225.065369,145.700287 226.047348,153.383972 
	C226.409637,156.218903 229.164841,159.115891 231.535675,161.167465 
	C232.681595,162.159088 235.462982,161.260727 237.503876,161.218109 
	C237.206802,159.538345 237.104401,157.793747 236.571289,156.192581 
	C235.527283,153.057022 233.508682,150.077316 233.180313,146.900131 
	C231.366837,129.352814 232.961380,112.301376 242.312546,95.941879 
z"/>
<path fill="#FD7520" opacity="1.000000" stroke="none" 
	d="
M197.339325,173.300385 
	C192.221207,182.474655 186.200806,190.922180 182.689209,200.308319 
	C179.671432,208.374557 178.585678,217.477600 178.258102,226.182846 
	C176.704880,267.459106 180.353439,308.365967 188.293091,348.900635 
	C189.713409,356.151764 187.462265,362.146118 181.033997,366.079498 
	C174.421738,370.125458 167.548126,369.881866 161.254517,365.604462 
	C155.152405,361.457245 154.238327,355.191803 155.506592,348.268372 
	C163.394547,305.208618 167.294296,261.844757 165.222458,218.037582 
	C164.667679,206.307205 160.840607,195.686951 155.228333,185.424011 
	C150.624878,177.005890 146.217392,168.324844 143.118195,159.282181 
	C139.793381,149.581314 142.335968,139.450302 144.020966,129.611038 
	C146.577057,114.685081 149.392029,99.803268 152.146912,84.911934 
	C152.371719,83.696671 152.979034,82.552177 154.407455,81.437813 
	C154.544952,83.162323 154.762131,84.884735 154.807678,86.611671 
	C155.273331,104.267654 155.709061,121.924423 156.160583,139.580780 
	C156.194641,140.912827 156.245117,142.246872 156.358047,143.574005 
	C156.606949,146.499344 156.141159,150.413757 160.368164,150.333878 
	C164.737274,150.251328 163.876526,146.287430 163.927719,143.408401 
	C164.274323,123.915131 164.570847,104.420990 164.906448,84.927521 
	C164.927856,83.683823 165.140991,82.443420 166.483704,81.000053 
	C166.746765,82.394127 167.194382,83.781540 167.244949,85.183281 
	C167.899734,103.332771 168.484848,121.484756 169.125992,139.634750 
	C169.214005,142.126053 169.108551,144.740906 169.861267,147.047760 
	C170.304565,148.406326 172.173386,149.934433 173.570038,150.120956 
	C174.479477,150.242371 176.066589,148.254150 176.661591,146.906952 
	C177.224091,145.633270 176.923386,143.962875 176.940674,142.466263 
	C177.158142,123.636986 177.352768,104.807426 177.593903,85.978470 
	C177.615021,84.329460 177.922668,82.684120 178.097229,81.037071 
	C178.656799,81.022026 179.216370,81.006981 179.775940,80.991928 
	C179.976974,82.797516 180.298737,84.598999 180.360306,86.409332 
	C180.960770,104.061081 181.505554,121.714729 182.100266,139.366684 
	C182.189926,142.027512 182.133118,144.763824 182.775909,147.305420 
	C183.092972,148.559052 184.822601,150.238785 185.966934,150.281464 
	C187.131439,150.324921 188.833969,148.822693 189.437958,147.578415 
	C190.110840,146.192139 189.907730,144.334290 189.919525,142.680542 
	C190.053879,123.850403 190.149765,105.019981 190.278717,86.189796 
	C190.290314,84.495018 190.460541,82.801323 190.557098,81.107124 
	C191.065918,81.077789 191.574738,81.048454 192.083542,81.019119 
	C193.174454,87.485046 194.230026,93.957176 195.363464,100.415634 
	C197.922729,114.998611 200.581390,129.564392 203.081848,144.157349 
	C204.841553,154.427307 202.681198,164.009628 197.339325,173.300385 
z"/>
<path fill="#FD7521" opacity="1.000000" stroke="none" 
	d="
M115.177086,257.725159 
	C122.765678,263.440155 130.686554,268.861694 134.427048,278.573029 
	C127.901764,275.694916 122.087105,272.840149 116.063927,270.528748 
	C98.922134,263.950592 90.567139,250.228973 85.033394,233.213455 
	C99.629776,236.967957 114.721336,237.310059 126.411713,247.917267 
	C127.158035,236.302612 104.582939,202.412827 97.082237,202.374420 
	C101.107918,209.629471 105.319199,217.218994 109.530472,224.808517 
	C79.824677,210.455154 69.732582,190.267471 72.964851,166.117188 
	C78.609024,170.201904 84.519554,174.515976 90.469391,178.775116 
	C96.489746,183.084747 102.549004,187.340057 109.346115,192.153778 
	C108.861900,189.142853 108.936478,186.438400 107.981720,184.166519 
	C99.680916,164.414520 104.496262,146.608490 116.153328,130.027969 
	C120.808937,123.406036 126.438545,117.468903 131.792389,111.018089 
	C141.603088,131.770691 137.569519,162.038330 120.829170,185.048492 
	C119.631439,174.990540 118.433708,164.932587 117.298264,155.397690 
	C109.537430,166.675171 110.270866,189.473892 120.233299,218.370300 
	C120.466629,207.815857 122.620453,199.428177 129.895935,193.310760 
	C131.553436,191.917099 133.430664,190.784790 135.752670,189.147171 
	C135.868851,190.627655 136.104813,191.213699 135.908035,191.480011 
	C130.444107,198.874680 130.581085,207.172104 131.227936,215.849792 
	C131.639450,221.370209 130.967209,227.119415 129.802689,232.556519 
	C129.045090,236.093658 129.027664,238.843414 130.968307,241.924881 
	C138.155502,253.337021 145.168808,264.858917 152.211578,276.361511 
	C153.006256,277.659454 153.573288,279.096771 153.713577,280.939362 
	C141.664932,272.406525 131.816650,260.871094 116.486725,256.416565 
	C115.015205,256.160919 114.181290,256.160919 112.029655,256.160919 
	C113.864365,257.072754 114.520721,257.398956 115.177086,257.725159 
z"/>
<path fill="#FD7724" opacity="1.000000" stroke="none" 
	d="
M427.741486,192.659561 
	C422.324890,209.539307 408.381439,217.401917 393.679199,225.123367 
	C397.701447,217.526550 401.723724,209.929749 406.347382,201.197113 
	C390.358093,213.255051 383.874207,229.865768 377.104340,246.689438 
	C389.250824,238.012619 403.566315,236.903198 418.177582,233.353516 
	C414.765656,244.880997 410.075989,254.586121 401.596466,261.970154 
	C392.302734,270.063232 380.292877,272.851959 369.936371,278.915619 
	C369.444885,278.239410 368.953400,277.563202 368.461945,276.886993 
	C374.678253,270.356201 380.894592,263.825409 387.432281,256.956970 
	C385.721222,257.397339 383.759949,257.410950 382.414551,258.328033 
	C373.643188,264.307129 364.967377,270.429260 356.347809,276.626343 
	C353.868408,278.408905 351.677338,280.592529 349.354065,282.592316 
	C349.005676,282.292572 348.657257,281.992859 348.308838,281.693115 
	C348.807159,280.845276 349.285522,279.984985 349.806885,279.151581 
	C355.634460,269.836639 360.981140,260.169403 367.449341,251.322296 
	C373.012573,243.712906 372.245178,236.176575 368.578888,228.912643 
	C365.105469,222.030823 360.232574,215.823685 355.676453,209.536255 
	C353.957428,207.163956 351.400940,205.398483 349.623932,202.892670 
	C361.957855,207.365128 376.489777,208.957138 378.703339,226.764648 
	C390.017242,201.037552 396.581360,172.674225 385.733978,154.978577 
	C384.723816,164.732269 383.696655,174.649887 382.588959,185.345337 
	C366.498779,167.661804 361.598022,134.934311 371.250763,111.442932 
	C381.460144,122.701836 391.386261,133.581879 396.409760,148.109833 
	C401.562225,163.010605 398.270294,177.382950 394.265869,192.212280 
	C404.323303,179.893311 421.938904,178.396683 430.154297,164.190567 
	C432.132538,171.518570 431.217712,181.960434 427.741486,192.659561 
M376.029907,247.430115 
	C376.262451,247.502335 376.495026,247.574539 376.727570,247.646759 
	C376.648376,247.424377 376.569214,247.201981 376.029907,247.430115 
z"/>
<path fill="#FFFDFB" opacity="1.000000" stroke="none" 
	d="
M1104.670166,190.330795 
	C1104.667725,208.595963 1104.584961,226.400879 1104.736694,244.203796 
	C1104.765137,247.538147 1104.079224,250.165680 1101.044556,251.656555 
	C1096.334351,253.970642 1091.725220,256.911255 1086.719849,258.109406 
	C1078.338013,260.115723 1072.337402,256.773529 1069.323730,248.705963 
	C1067.372314,243.482208 1066.035645,237.833359 1065.588257,232.281174 
	C1064.424927,217.841629 1064.085693,203.350769 1068.927490,189.351044 
	C1071.381836,182.254013 1075.225830,176.220993 1083.545532,175.504913 
	C1091.828613,174.792007 1098.162109,179.230820 1103.703491,184.707718 
	C1104.727051,185.719299 1104.383667,188.113693 1104.670166,190.330795 
z"/>
<path fill="#FFF7F3" opacity="1.000000" stroke="none" 
	d="
M242.149597,96.273987 
	C232.961380,112.301376 231.366837,129.352814 233.180313,146.900131 
	C233.508682,150.077316 235.527283,153.057022 236.571289,156.192581 
	C237.104401,157.793747 237.206802,159.538345 237.503876,161.218109 
	C235.462982,161.260727 232.681595,162.159088 231.535675,161.167465 
	C229.164841,159.115891 226.409637,156.218903 226.047348,153.383972 
	C225.065369,145.700287 224.578491,137.819778 225.125458,130.104523 
	C226.020721,117.475998 229.687393,105.539551 237.876953,95.518700 
	C240.246796,92.618950 243.355164,90.322777 246.124954,87.749893 
	C246.516205,88.059776 246.907440,88.369659 247.298676,88.679543 
	C245.636627,91.100319 243.974594,93.521103 242.149597,96.273987 
z"/>
<path fill="#FFFFFE" opacity="1.000000" stroke="none" 
	d="
M115.495308,257.443207 
	C114.520721,257.398956 113.864365,257.072754 112.029655,256.160919 
	C114.181290,256.160919 115.015205,256.160919 116.124786,256.353455 
	C116.204819,256.751068 116.009171,256.956146 115.495308,257.443207 
z"/>
<path fill="#FFFFFE" opacity="1.000000" stroke="none" 
	d="
M376.259979,247.204849 
	C376.569214,247.201981 376.648376,247.424377 376.727570,247.646759 
	C376.495026,247.574539 376.262451,247.502335 376.259979,247.204849 
z"/>
</svg>